<svg xmlns="http://www.w3.org/2000/svg" xmlns:xlink="http://www.w3.org/1999/xlink" xmlns:lucid="lucid" width="2347.52" height="1643.05"><g transform="translate(0 0)" lucid:page-tab-id="HWEp-vi-RSFO"><path d="M0 0h2347.52v1643.05H0z" fill="#fff"/><path d="M340 220h300v180H340z" stroke="#333" stroke-width="2" fill="#fff"/><path d="M340 279.2h300" stroke="#333" stroke-width="2" fill="none"/><use xlink:href="#a" transform="matrix(1,0,0,1,348,228) translate(97.55 14.799999999999999)"/><use xlink:href="#b" transform="matrix(1,0,0,1,348,228) translate(122.55 36.4)"/><use xlink:href="#c" transform="matrix(1,0,0,1,352,287.2) translate(0 56.1)"/><use xlink:href="#d" transform="matrix(1,0,0,1,352,287.2) translate(130.70000000000002 56.1)"/><path d="M960 60h340v372H960z" stroke="#333" stroke-width="2" fill="#fff"/><path d="M960 97.6h340M960 200h340" stroke="#333" stroke-width="2" fill="none"/><use xlink:href="#e" transform="matrix(1,0,0,1,968,68) translate(101.19999999999999 14.6)"/><use xlink:href="#f" transform="matrix(1,0,0,1,972,105.6) translate(0 14.69999999999999)"/><use xlink:href="#g" transform="matrix(1,0,0,1,972,105.6) translate(10.95 14.69999999999999)"/><use xlink:href="#h" transform="matrix(1,0,0,1,972,105.6) translate(81.85000000000001 14.69999999999999)"/><use xlink:href="#f" transform="matrix(1,0,0,1,972,105.6) translate(0 36.29999999999999)"/><use xlink:href="#i" transform="matrix(1,0,0,1,972,105.6) translate(10.95 36.29999999999999)"/><use xlink:href="#j" transform="matrix(1,0,0,1,972,105.6) translate(44.900000000000006 36.29999999999999)"/><use xlink:href="#f" transform="matrix(1,0,0,1,972,105.6) translate(0 57.89999999999999)"/><use xlink:href="#k" transform="matrix(1,0,0,1,972,105.6) translate(10.95 57.89999999999999)"/><use xlink:href="#l" transform="matrix(1,0,0,1,972,105.6) translate(53.8 57.89999999999999)"/><use xlink:href="#f" transform="matrix(1,0,0,1,972,105.6) translate(0 79.5)"/><use xlink:href="#m" transform="matrix(1,0,0,1,972,105.6) translate(10.95 79.5)"/><use xlink:href="#n" transform="matrix(1,0,0,1,972,105.6) translate(91.80000000000001 79.5)"/><use xlink:href="#o" transform="matrix(1,0,0,1,972,208) translate(0 14.400000000000015)"/><use xlink:href="#p" transform="matrix(1,0,0,1,972,208) translate(15.5 14.400000000000015)"/><use xlink:href="#q" transform="matrix(1,0,0,1,972,208) translate(129.3 14.400000000000015)"/><use xlink:href="#r" transform="matrix(1,0,0,1,972,208) translate(206.20000000000002 14.400000000000015)"/><use xlink:href="#s" transform="matrix(1,0,0,1,972,208) translate(0 36.000000000000014)"/><use xlink:href="#t" transform="matrix(1,0,0,1,972,208) translate(54 36.000000000000014)"/><use xlink:href="#u" transform="matrix(1,0,0,1,972,208) translate(105.9 36.000000000000014)"/><use xlink:href="#v" transform="matrix(1,0,0,1,972,208) translate(211.75 36.000000000000014)"/><use xlink:href="#w" transform="matrix(1,0,0,1,972,208) translate(253.65 36.000000000000014)"/><use xlink:href="#x" transform="matrix(1,0,0,1,972,208) translate(0 57.600000000000016)"/><use xlink:href="#y" transform="matrix(1,0,0,1,972,208) translate(0 79.20000000000003)"/><use xlink:href="#p" transform="matrix(1,0,0,1,972,208) translate(15.5 79.20000000000003)"/><use xlink:href="#z" transform="matrix(1,0,0,1,972,208) translate(129.3 79.20000000000003)"/><use xlink:href="#A" transform="matrix(1,0,0,1,972,208) translate(199.3 79.20000000000003)"/><use xlink:href="#B" transform="matrix(1,0,0,1,972,208) translate(256.2 79.20000000000003)"/><use xlink:href="#A" transform="matrix(1,0,0,1,972,208) translate(0 100.80000000000003)"/><use xlink:href="#C" transform="matrix(1,0,0,1,972,208) translate(56.9 100.80000000000003)"/><use xlink:href="#D" transform="matrix(1,0,0,1,972,208) translate(158.4 100.80000000000003)"/><use xlink:href="#E" transform="matrix(1,0,0,1,972,208) translate(249.3 100.80000000000003)"/><use xlink:href="#F" transform="matrix(1,0,0,1,972,208) translate(0 122.40000000000002)"/><use xlink:href="#G" transform="matrix(1,0,0,1,972,208) translate(34.9 122.40000000000002)"/><use xlink:href="#x" transform="matrix(1,0,0,1,972,208) translate(50.849999999999994 122.40000000000002)"/><use xlink:href="#y" transform="matrix(1,0,0,1,972,208) translate(0 144.00000000000003)"/><use xlink:href="#H" transform="matrix(1,0,0,1,972,208) translate(15.5 144.00000000000003)"/><use xlink:href="#I" transform="matrix(1,0,0,1,972,208) translate(225.25 144.00000000000003)"/><use xlink:href="#g" transform="matrix(1,0,0,1,972,208) translate(0 165.6)"/><use xlink:href="#A" transform="matrix(1,0,0,1,972,208) translate(70.9 165.6)"/><use xlink:href="#C" transform="matrix(1,0,0,1,972,208) translate(127.80000000000001 165.6)"/><use xlink:href="#J" transform="matrix(1,0,0,1,972,208) translate(229.3 165.6)"/><use xlink:href="#K" transform="matrix(1,0,0,1,972,208) translate(0 187.20000000000002)"/><use xlink:href="#L" transform="matrix(1,0,0,1,972,208) translate(48.900000000000006 187.20000000000002)"/><use xlink:href="#M" transform="matrix(1,0,0,1,972,208) translate(101.75000000000001 187.20000000000002)"/><use xlink:href="#o" transform="matrix(1,0,0,1,972,208) translate(0 208.79999999999998)"/><use xlink:href="#N" transform="matrix(1,0,0,1,972,208) translate(15.5 208.79999999999998)"/><path d="M1480 136h300v309h-300z" stroke="#333" stroke-width="2" fill="#fff"/><path d="M1480 173.6h300" stroke="#333" stroke-width="2" fill="none"/><g><use xlink:href="#O" transform="matrix(1,0,0,1,1488,144) translate(109.55 14.6)"/></g><g><use xlink:href="#o" transform="matrix(1,0,0,1,1492,181.6) translate(0 56.00000000000001)"/><use xlink:href="#P" transform="matrix(1,0,0,1,1492,181.6) translate(15.5 56.00000000000001)"/><use xlink:href="#Q" transform="matrix(1,0,0,1,1492,181.6) translate(0 77.60000000000001)"/><use xlink:href="#g" transform="matrix(1,0,0,1,1492,181.6) translate(10 77.60000000000001)"/><use xlink:href="#R" transform="matrix(1,0,0,1,1492,181.6) translate(80.9 77.60000000000001)"/><use xlink:href="#Q" transform="matrix(1,0,0,1,1492,181.6) translate(0 99.20000000000002)"/><use xlink:href="#m" transform="matrix(1,0,0,1,1492,181.6) translate(10 99.20000000000002)"/><use xlink:href="#R" transform="matrix(1,0,0,1,1492,181.6) translate(90.85000000000001 99.20000000000002)"/><use xlink:href="#S" transform="matrix(1,0,0,1,1492,181.6) translate(0 120.80000000000003)"/><use xlink:href="#T" transform="matrix(1,0,0,1,1492,181.6) translate(33.95 120.80000000000003)"/><use xlink:href="#o" transform="matrix(1,0,0,1,1492,181.6) translate(0 142.4)"/><use xlink:href="#U" transform="matrix(1,0,0,1,1492,181.6) translate(15.5 142.4)"/><use xlink:href="#Q" transform="matrix(1,0,0,1,1492,181.6) translate(0 164.00000000000003)"/><use xlink:href="#V" transform="matrix(1,0,0,1,1492,181.6) translate(10 164.00000000000003)"/><use xlink:href="#h" transform="matrix(1,0,0,1,1492,181.6) translate(96.9 164.00000000000003)"/><use xlink:href="#Q" transform="matrix(1,0,0,1,1492,181.6) translate(0 185.6)"/><use xlink:href="#W" transform="matrix(1,0,0,1,1492,181.6) translate(10 185.6)"/><use xlink:href="#j" transform="matrix(1,0,0,1,1492,181.6) translate(30 185.6)"/><use xlink:href="#X" transform="matrix(1,0,0,1,1492,181.6) translate(0 207.20000000000002)"/><use xlink:href="#Y" transform="matrix(1,0,0,1,1492,181.6) translate(15.95 207.20000000000002)"/></g><path d="M60 560h340v286H60z" stroke="#333" stroke-width="2" fill="#fff"/><path d="M60 619.2h340M60 700h340" stroke="#333" stroke-width="2" fill="none"/><g><use xlink:href="#Z" transform="matrix(1,0,0,1,68,568) translate(116.57499999999999 14.799999999999999)"/><use xlink:href="#aa" transform="matrix(1,0,0,1,68,568) translate(125.07499999999999 36.4)"/></g><g><use xlink:href="#f" transform="matrix(1,0,0,1,72,627.2) translate(0 14.500000000000002)"/><use xlink:href="#z" transform="matrix(1,0,0,1,72,627.2) translate(10.95 14.500000000000002)"/><use xlink:href="#j" transform="matrix(1,0,0,1,72,627.2) translate(80.95 14.500000000000002)"/><use xlink:href="#f" transform="matrix(1,0,0,1,72,627.2) translate(0 36.1)"/><use xlink:href="#ab" transform="matrix(1,0,0,1,72,627.2) translate(10.95 36.1)"/><use xlink:href="#ac" transform="matrix(1,0,0,1,72,627.2) translate(157.75 36.1)"/><use xlink:href="#f" transform="matrix(1,0,0,1,72,627.2) translate(0 57.7)"/><use xlink:href="#K" transform="matrix(1,0,0,1,72,627.2) translate(10.95 57.7)"/><use xlink:href="#d" transform="matrix(1,0,0,1,72,627.2) translate(59.85000000000001 57.7)"/></g><g><use xlink:href="#o" transform="matrix(1,0,0,1,72,708) translate(0 14.600000000000003)"/><use xlink:href="#ad" transform="matrix(1,0,0,1,72,708) translate(15.5 14.600000000000003)"/><use xlink:href="#ae" transform="matrix(1,0,0,1,72,708) translate(146.20000000000002 14.600000000000003)"/><use xlink:href="#y" transform="matrix(1,0,0,1,72,708) translate(0 36.2)"/><use xlink:href="#af" transform="matrix(1,0,0,1,72,708) translate(15.5 36.2)"/><use xlink:href="#ae" transform="matrix(1,0,0,1,72,708) translate(102.95 36.2)"/><use xlink:href="#ag" transform="matrix(1,0,0,1,72,708) translate(0 57.800000000000004)"/><use xlink:href="#ah" transform="matrix(1,0,0,1,72,708) translate(96.95 57.800000000000004)"/><use xlink:href="#ai" transform="matrix(1,0,0,1,72,708) translate(112.45 57.800000000000004)"/><use xlink:href="#r" transform="matrix(1,0,0,1,72,708) translate(254.3 57.800000000000004)"/><use xlink:href="#ab" transform="matrix(1,0,0,1,72,708) translate(0 79.40000000000002)"/><use xlink:href="#J" transform="matrix(1,0,0,1,72,708) translate(146.8 79.40000000000002)"/><use xlink:href="#aj" transform="matrix(1,0,0,1,72,708) translate(0 101.00000000000001)"/><use xlink:href="#o" transform="matrix(1,0,0,1,72,708) translate(0 122.60000000000001)"/><use xlink:href="#N" transform="matrix(1,0,0,1,72,708) translate(15.5 122.60000000000001)"/></g><path d="M580 560h340v221H580z" stroke="#333" stroke-width="2" fill="#fff"/><path d="M580 597.6h340m-340 80.8h340" stroke="#333" stroke-width="2" fill="none"/><g><use xlink:href="#ak" transform="matrix(1,0,0,1,588,568) translate(122.57499999999999 14.6)"/></g><g><use xlink:href="#f" transform="matrix(1,0,0,1,592,605.6) translate(0 14.500000000000002)"/><use xlink:href="#al" transform="matrix(1,0,0,1,592,605.6) translate(10.95 14.500000000000002)"/><use xlink:href="#j" transform="matrix(1,0,0,1,592,605.6) translate(103.80000000000001 14.500000000000002)"/><use xlink:href="#f" transform="matrix(1,0,0,1,592,605.6) translate(0 36.1)"/><use xlink:href="#am" transform="matrix(1,0,0,1,592,605.6) translate(10.95 36.1)"/><use xlink:href="#an" transform="matrix(1,0,0,1,592,605.6) translate(94.85000000000001 36.1)"/><use xlink:href="#f" transform="matrix(1,0,0,1,592,605.6) translate(0 57.7)"/><use xlink:href="#ao" transform="matrix(1,0,0,1,592,605.6) translate(10.95 57.7)"/><use xlink:href="#d" transform="matrix(1,0,0,1,592,605.6) translate(146.7 57.7)"/></g><g><use xlink:href="#ap" transform="matrix(1,0,0,1,592,686.4) translate(0 14.69999999999999)"/><use xlink:href="#ah" transform="matrix(1,0,0,1,592,686.4) translate(100.9 14.69999999999999)"/><use xlink:href="#aq" transform="matrix(1,0,0,1,592,686.4) translate(116.4 14.69999999999999)"/><use xlink:href="#ar" transform="matrix(1,0,0,1,592,686.4) translate(0 36.29999999999999)"/><use xlink:href="#am" transform="matrix(1,0,0,1,592,686.4) translate(64.95 36.29999999999999)"/><use xlink:href="#as" transform="matrix(1,0,0,1,592,686.4) translate(148.85000000000002 36.29999999999999)"/><use xlink:href="#ao" transform="matrix(1,0,0,1,592,686.4) translate(0 57.89999999999999)"/><use xlink:href="#at" transform="matrix(1,0,0,1,592,686.4) translate(135.75 57.89999999999999)"/><use xlink:href="#o" transform="matrix(1,0,0,1,592,686.4) translate(0 79.5)"/><use xlink:href="#ad" transform="matrix(1,0,0,1,592,686.4) translate(15.5 79.5)"/><use xlink:href="#d" transform="matrix(1,0,0,1,592,686.4) translate(146.20000000000002 79.5)"/></g><path d="M60 1120h340v199H60z" stroke="#333" stroke-width="2" fill="#fff"/><path d="M60 1157.6h340m-340 59.2h340" stroke="#333" stroke-width="2" fill="none"/><g><use xlink:href="#au" transform="matrix(1,0,0,1,68,1128) translate(116.175 14.6)"/></g><g><use xlink:href="#f" transform="matrix(1,0,0,1,72,1165.6) translate(0 14.799999999999999)"/><use xlink:href="#av" transform="matrix(1,0,0,1,72,1165.6) translate(10.95 14.799999999999999)"/><use xlink:href="#h" transform="matrix(1,0,0,1,72,1165.6) translate(70.85000000000001 14.799999999999999)"/><use xlink:href="#f" transform="matrix(1,0,0,1,72,1165.6) translate(0 36.4)"/><use xlink:href="#aw" transform="matrix(1,0,0,1,72,1165.6) translate(10.95 36.4)"/><use xlink:href="#ax" transform="matrix(1,0,0,1,72,1165.6) translate(79.85000000000001 36.4)"/></g><g><use xlink:href="#ap" transform="matrix(1,0,0,1,72,1224.8) translate(0 14.69999999999999)"/><use xlink:href="#ah" transform="matrix(1,0,0,1,72,1224.8) translate(100.9 14.69999999999999)"/><use xlink:href="#ay" transform="matrix(1,0,0,1,72,1224.8) translate(116.4 14.69999999999999)"/><use xlink:href="#I" transform="matrix(1,0,0,1,72,1224.8) translate(263.15 14.69999999999999)"/><use xlink:href="#aw" transform="matrix(1,0,0,1,72,1224.8) translate(0 36.29999999999999)"/><use xlink:href="#A" transform="matrix(1,0,0,1,72,1224.8) translate(68.9 36.29999999999999)"/><use xlink:href="#z" transform="matrix(1,0,0,1,72,1224.8) translate(125.80000000000001 36.29999999999999)"/><use xlink:href="#A" transform="matrix(1,0,0,1,72,1224.8) translate(195.8 36.29999999999999)"/><use xlink:href="#az" transform="matrix(1,0,0,1,72,1224.8) translate(252.70000000000002 36.29999999999999)"/><use xlink:href="#D" transform="matrix(1,0,0,1,72,1224.8) translate(0 57.89999999999999)"/><use xlink:href="#K" transform="matrix(1,0,0,1,72,1224.8) translate(90.9 57.89999999999999)"/><use xlink:href="#aA" transform="matrix(1,0,0,1,72,1224.8) translate(139.8 57.89999999999999)"/><use xlink:href="#y" transform="matrix(1,0,0,1,72,1224.8) translate(0 79.5)"/><use xlink:href="#ad" transform="matrix(1,0,0,1,72,1224.8) translate(15.5 79.5)"/><use xlink:href="#d" transform="matrix(1,0,0,1,72,1224.8) translate(146.20000000000002 79.5)"/></g><path d="M580 1120h340v178H580z" stroke="#333" stroke-width="2" fill="#fff"/><path d="M580 1157.6h340m-340 37.6h340" stroke="#333" stroke-width="2" fill="none"/><g><use xlink:href="#aB" transform="matrix(1,0,0,1,588,1128) translate(105.57499999999999 14.6)"/></g><g><use xlink:href="#f" transform="matrix(1,0,0,1,592,1165.6) translate(0 14.6)"/><use xlink:href="#g" transform="matrix(1,0,0,1,592,1165.6) translate(10.95 14.6)"/><use xlink:href="#n" transform="matrix(1,0,0,1,592,1165.6) translate(81.85000000000001 14.6)"/></g><g><use xlink:href="#ap" transform="matrix(1,0,0,1,592,1203.1999999999998) translate(0 14.69999999999999)"/><use xlink:href="#ah" transform="matrix(1,0,0,1,592,1203.1999999999998) translate(100.9 14.69999999999999)"/><use xlink:href="#aC" transform="matrix(1,0,0,1,592,1203.1999999999998) translate(116.4 14.69999999999999)"/><use xlink:href="#A" transform="matrix(1,0,0,1,592,1203.1999999999998) translate(0 36.29999999999999)"/><use xlink:href="#z" transform="matrix(1,0,0,1,592,1203.1999999999998) translate(56.9 36.29999999999999)"/><use xlink:href="#A" transform="matrix(1,0,0,1,592,1203.1999999999998) translate(126.9 36.29999999999999)"/><use xlink:href="#az" transform="matrix(1,0,0,1,592,1203.1999999999998) translate(183.8 36.29999999999999)"/><use xlink:href="#D" transform="matrix(1,0,0,1,592,1203.1999999999998) translate(0 57.89999999999999)"/><use xlink:href="#K" transform="matrix(1,0,0,1,592,1203.1999999999998) translate(90.9 57.89999999999999)"/><use xlink:href="#aD" transform="matrix(1,0,0,1,592,1203.1999999999998) translate(139.8 57.89999999999999)"/><use xlink:href="#o" transform="matrix(1,0,0,1,592,1203.1999999999998) translate(0 79.5)"/><use xlink:href="#ad" transform="matrix(1,0,0,1,592,1203.1999999999998) translate(15.5 79.5)"/><use xlink:href="#d" transform="matrix(1,0,0,1,592,1203.1999999999998) translate(146.20000000000002 79.5)"/></g><path d="M1630 134.5v-29.17a12 12 0 0 0-12-12h-300.62" stroke="#333" fill="none"/><path d="M1630.5 135h-1v-.5h1z" stroke="#333" stroke-width=".05" fill="#333"/><path d="M1302.62 93.33l14.26-4.63v9.27z" stroke="#333" fill="#333"/><path d="M1130 58.5V31a12 12 0 0 0-12-12H502a12 12 0 0 0-12 12v171.62" stroke="#333" fill="none"/><path d="M1130.5 59h-1v-.5h1z" stroke="#333" stroke-width=".05" fill="#333"/><path d="M490 217.38l-4.63-14.26h9.26z" stroke="#333" fill="#333"/><path d="M230 558.5v-9.85m0-9.86v-19.72m0-9.85v-19.7m0-9.86v-19.7m0-9.87v-19.7m0-9.86v-19.7m0-9.86v-19.7m0-9.86v-19.7m0-9.87V322l.15-1.88.44-1.83.7-1.75 1-1.6 1.2-1.44 1.45-1.2 1.6-1 1.74-.7 1.82-.45 8.43-.02m8.43 0l16.87-.05m8.43 0l16.86-.05m8.43 0L316 310" stroke="#333" fill="none"/><path d="M230.5 559h-1v-.5h1z" stroke="#333" stroke-width=".05" fill="#333"/><path d="M338.02 310l-21.52 12.73v-25.46z" stroke="#333" fill="#fff"/><path d="M750 558.5v-9.85m0-9.86v-19.72m0-9.85v-19.7m0-9.86v-19.7m0-9.87v-19.7m0-9.86v-19.7m0-9.86v-19.7m0-9.86v-19.7m0-9.87V322l-.15-1.88-.44-1.83-.7-1.75-1-1.6-1.22-1.44-1.43-1.2-1.6-1-1.74-.7-1.82-.45-8.43-.02m-8.43 0l-16.87-.05m-8.43 0l-16.86-.05m-8.43 0L664 310" stroke="#333" fill="none"/><path d="M750.5 559h-1v-.5h1z" stroke="#333" stroke-width=".05" fill="#333"/><path d="M641.98 310l21.52-12.73v25.46z" stroke="#333" fill="#fff"/><path d="M230 1118.5V863.38" stroke="#333" fill="none"/><path d="M230.5 1119h-1v-.5h1z" stroke="#333" stroke-width=".05" fill="#333"/><path d="M230 848.62l4.63 14.26h-9.26z" stroke="#333" fill="#333"/><path d="M750 1118.5V995a12 12 0 0 0-12-12H242a12 12 0 0 1-12-12V863.38" stroke="#333" fill="none"/><path d="M750.5 1119h-1v-.5h1z" stroke="#333" stroke-width=".05" fill="#333"/><path d="M230 848.62l4.63 14.26h-9.26z" stroke="#333" fill="#333"/><defs><path fill="#333" d="M156-25L96-89v-11l60-65h29v5l-59 66 60 64v5h-30zm-82 0L15-89v-11l59-65h29v5L44-94l59 64v5H74" id="aE"/><path fill="#333" d="M24-231v-30h32v30H24zM24 0v-190h32V0H24" id="aF"/><path fill="#333" d="M117-194c89-4 53 116 60 194h-32v-121c0-31-8-49-39-48C34-167 62-67 57 0H25l-1-190h30c1 10-1 24 2 32 11-22 29-35 61-36" id="aG"/><path fill="#333" d="M59-47c-2 24 18 29 38 22v24C64 9 27 4 27-40v-127H5v-23h24l9-43h21v43h35v23H59v120" id="aH"/><path fill="#333" d="M100-194c63 0 86 42 84 106H49c0 40 14 67 53 68 26 1 43-12 49-29l28 8c-11 28-37 45-77 45C44 4 14-33 15-96c1-61 26-98 85-98zm52 81c6-60-76-77-97-28-3 7-6 17-6 28h103" id="aI"/><path fill="#333" d="M114-163C36-179 61-72 57 0H25l-1-190h30c1 12-1 29 2 39 6-27 23-49 58-41v29" id="aJ"/><path fill="#333" d="M101-234c-31-9-42 10-38 44h38v23H63V0H32v-167H5v-23h27c-7-52 17-82 69-68v24" id="aK"/><path fill="#333" d="M141-36C126-15 110 5 73 4 37 3 15-17 15-53c-1-64 63-63 125-63 3-35-9-54-41-54-24 1-41 7-42 31l-33-3c5-37 33-52 76-52 45 0 72 20 72 64v82c-1 20 7 32 28 27v20c-31 9-61-2-59-35zM48-53c0 20 12 33 32 33 41-3 63-29 60-74-43 2-92-5-92 41" id="aL"/><path fill="#333" d="M96-169c-40 0-48 33-48 73s9 75 48 75c24 0 41-14 43-38l32 2c-6 37-31 61-74 61-59 0-76-41-82-99-10-93 101-131 147-64 4 7 5 14 7 22l-32 3c-4-21-16-35-41-35" id="aM"/><path fill="#333" d="M126-25H97v-5l59-64-59-66v-5h29l60 65v11zm-82 0H15v-5l59-64-59-66v-5h29l59 65v11" id="aN"/><g id="a"><use transform="matrix(0.05,0,0,0.05,0,0)" xlink:href="#aE"/><use transform="matrix(0.05,0,0,0.05,10,0)" xlink:href="#aF"/><use transform="matrix(0.05,0,0,0.05,13.949999999999998,0)" xlink:href="#aG"/><use transform="matrix(0.05,0,0,0.05,23.95,0)" xlink:href="#aH"/><use transform="matrix(0.05,0,0,0.05,28.950000000000003,0)" xlink:href="#aI"/><use transform="matrix(0.05,0,0,0.05,38.95,0)" xlink:href="#aJ"/><use transform="matrix(0.05,0,0,0.05,44.900000000000006,0)" xlink:href="#aK"/><use transform="matrix(0.05,0,0,0.05,49.900000000000006,0)" xlink:href="#aL"/><use transform="matrix(0.05,0,0,0.05,59.900000000000006,0)" xlink:href="#aM"/><use transform="matrix(0.05,0,0,0.05,68.9,0)" xlink:href="#aI"/><use transform="matrix(0.05,0,0,0.05,78.9,0)" xlink:href="#aN"/></g><path fill="#333" d="M182-130c37 4 62 22 62 59C244 23 116-4 24 0v-248c84 5 203-23 205 63 0 31-19 50-47 55zM76-148c40-3 101 13 101-30 0-44-60-28-101-31v61zm0 110c48-3 116 14 116-37 0-48-69-32-116-35v72" id="aO"/><path fill="#333" d="M25-224v-37h50v37H25zM25 0v-190h50V0H25" id="aP"/><path fill="#333" d="M185-48c-13 30-37 53-82 52C43 2 14-33 14-96s30-98 90-98c62 0 83 45 84 108H66c0 31 8 55 39 56 18 0 30-7 34-22zm-45-69c5-46-57-63-70-21-2 6-4 13-4 21h74" id="aQ"/><path fill="#333" d="M135-194c87-1 58 113 63 194h-50c-7-57 23-157-34-157-59 0-34 97-39 157H25l-1-190h47c2 12-1 28 3 38 12-26 28-41 61-42" id="aR"/><g id="b"><use transform="matrix(0.05,0,0,0.05,0,0)" xlink:href="#aO"/><use transform="matrix(0.05,0,0,0.05,12.950000000000001,0)" xlink:href="#aP"/><use transform="matrix(0.05,0,0,0.05,17.950000000000003,0)" xlink:href="#aQ"/><use transform="matrix(0.05,0,0,0.05,27.950000000000003,0)" xlink:href="#aR"/></g><path fill="#333" d="M24 0v-261h32V0H24" id="aS"/><path fill="#333" d="M84 4C-5 8 30-112 23-190h32v120c0 31 7 50 39 49 72-2 45-101 50-169h31l1 190h-30c-1-10 1-25-2-33-11 22-28 36-60 37" id="aT"/><path fill="#333" d="M212-179c-10-28-35-45-73-45-59 0-87 40-87 99 0 60 29 101 89 101 43 0 62-24 78-52l27 14C228-24 195 4 139 4 59 4 22-46 18-125c-6-104 99-153 187-111 19 9 31 26 39 46" id="aU"/><path fill="#333" d="M100-194c62-1 85 37 85 99 1 63-27 99-86 99S16-35 15-95c0-66 28-99 85-99zM99-20c44 1 53-31 53-75 0-43-8-75-51-75s-53 32-53 75 10 74 51 75" id="aV"/><path fill="#333" d="M135-143c-3-34-86-38-87 0 15 53 115 12 119 90S17 21 10-45l28-5c4 36 97 45 98 0-10-56-113-15-118-90-4-57 82-63 122-42 12 7 21 19 24 35" id="aW"/><path fill="#333" d="M87 75C49 33 22-17 22-94c0-76 28-126 65-167h31c-38 41-64 92-64 168S80 34 118 75H87" id="aX"/><path fill="#333" d="M33-261c38 41 65 92 65 168S71 34 33 75H2C39 34 66-17 66-93S39-220 2-261h31" id="aY"/><path fill="#333" d="M33-154v-36h34v36H33zM33 0v-36h34V0H33" id="aZ"/><g id="c"><use transform="matrix(0.05,0,0,0.05,0,0)" xlink:href="#aM"/><use transform="matrix(0.05,0,0,0.05,9,0)" xlink:href="#aL"/><use transform="matrix(0.05,0,0,0.05,19,0)" xlink:href="#aS"/><use transform="matrix(0.05,0,0,0.05,22.95,0)" xlink:href="#aM"/><use transform="matrix(0.05,0,0,0.05,31.950000000000003,0)" xlink:href="#aT"/><use transform="matrix(0.05,0,0,0.05,41.95,0)" xlink:href="#aS"/><use transform="matrix(0.05,0,0,0.05,45.900000000000006,0)" xlink:href="#aL"/><use transform="matrix(0.05,0,0,0.05,55.900000000000006,0)" xlink:href="#aJ"/><use transform="matrix(0.05,0,0,0.05,61.85,0)" xlink:href="#aU"/><use transform="matrix(0.05,0,0,0.05,74.80000000000001,0)" xlink:href="#aV"/><use transform="matrix(0.05,0,0,0.05,84.80000000000001,0)" xlink:href="#aW"/><use transform="matrix(0.05,0,0,0.05,93.80000000000001,0)" xlink:href="#aH"/><use transform="matrix(0.05,0,0,0.05,98.80000000000001,0)" xlink:href="#aV"/><use transform="matrix(0.05,0,0,0.05,108.80000000000001,0)" xlink:href="#aX"/><use transform="matrix(0.05,0,0,0.05,114.75,0)" xlink:href="#aY"/><use transform="matrix(0.05,0,0,0.05,120.7,0)" xlink:href="#aZ"/></g><path fill="#333" d="M233-177c-1 41-23 64-60 70L243 0h-38l-65-103H63V0H30v-248c88 3 205-21 203 71zM63-129c60-2 137 13 137-47 0-61-80-42-137-45v92" id="ba"/><g id="d"><use transform="matrix(0.05,0,0,0.05,0,0)" xlink:href="#ba"/><use transform="matrix(0.05,0,0,0.05,12.950000000000001,0)" xlink:href="#aI"/><use transform="matrix(0.05,0,0,0.05,22.950000000000003,0)" xlink:href="#aL"/><use transform="matrix(0.05,0,0,0.05,32.95,0)" xlink:href="#aS"/></g><path fill="#333" d="M67-125c0 53 21 87 73 88 37 1 54-22 65-47l45 17C233-25 199 4 140 4 58 4 20-42 15-125 8-235 124-281 211-232c18 10 29 29 36 50l-46 12c-8-25-30-41-62-41-52 0-71 34-72 86" id="bb"/><path fill="#333" d="M110-194c64 0 96 36 96 99 0 64-35 99-97 99-61 0-95-36-95-99 0-62 34-99 96-99zm-1 164c35 0 45-28 45-65 0-40-10-65-43-65-34 0-45 26-45 65 0 36 10 65 43 65" id="bc"/><path fill="#333" d="M115-3C79 11 28 4 28-45v-112H4v-33h27l15-45h31v45h36v33H77v99c-1 23 16 31 38 25v30" id="bd"/><path fill="#333" d="M135-150c-39-12-60 13-60 57V0H25l-1-190h47c2 13-1 29 3 40 6-28 27-53 61-41v41" id="be"/><path fill="#333" d="M135-194c52 0 70 43 70 98 0 56-19 99-73 100-30 1-46-15-58-35L72 0H24l1-261h50v104c11-23 29-37 60-37zM114-30c31 0 40-27 40-66 0-37-7-63-39-63s-41 28-41 65c0 36 8 64 40 64" id="bf"/><path fill="#333" d="M85 4C-2 5 27-109 22-190h50c7 57-23 150 33 157 60-5 35-97 40-157h50l1 190h-47c-2-12 1-28-3-38-12 25-28 42-61 42" id="bg"/><path fill="#333" d="M123 10C108 53 80 86 19 72V37c35 8 53-11 59-39L3-190h52l48 148c12-52 28-100 44-148h51" id="bh"/><g id="e"><use transform="matrix(0.05,0,0,0.05,0,0)" xlink:href="#bb"/><use transform="matrix(0.05,0,0,0.05,12.950000000000001,0)" xlink:href="#bc"/><use transform="matrix(0.05,0,0,0.05,23.900000000000002,0)" xlink:href="#aR"/><use transform="matrix(0.05,0,0,0.05,34.85,0)" xlink:href="#bd"/><use transform="matrix(0.05,0,0,0.05,40.800000000000004,0)" xlink:href="#be"/><use transform="matrix(0.05,0,0,0.05,47.800000000000004,0)" xlink:href="#aP"/><use transform="matrix(0.05,0,0,0.05,52.800000000000004,0)" xlink:href="#bf"/><use transform="matrix(0.05,0,0,0.05,63.75,0)" xlink:href="#bg"/><use transform="matrix(0.05,0,0,0.05,74.7,0)" xlink:href="#bh"/><use transform="matrix(0.05,0,0,0.05,84.7,0)" xlink:href="#aQ"/><use transform="matrix(0.05,0,0,0.05,94.7,0)" xlink:href="#aR"/><use transform="matrix(0.05,0,0,0.05,105.65,0)" xlink:href="#bd"/><use transform="matrix(0.05,0,0,0.05,111.60000000000001,0)" xlink:href="#aQ"/></g><path fill="#333" d="M16-82v-28h88v28H16" id="bi"/><use transform="matrix(0.05,0,0,0.05,0,0)" xlink:href="#bi" id="f"/><path fill="#333" d="M210-169c-67 3-38 105-44 169h-31v-121c0-29-5-50-35-48C34-165 62-65 56 0H25l-1-190h30c1 10-1 24 2 32 10-44 99-50 107 0 11-21 27-35 58-36 85-2 47 119 55 194h-31v-121c0-29-5-49-35-48" id="bj"/><path fill="#333" d="M115-194c53 0 69 39 70 98 0 66-23 100-70 100C84 3 66-7 56-30L54 0H23l1-261h32v101c10-23 28-34 59-34zm-8 174c40 0 45-34 45-75 0-40-5-75-45-74-42 0-51 32-51 76 0 43 10 73 51 73" id="bk"/><g id="g"><use transform="matrix(0.05,0,0,0.05,0,0)" xlink:href="#aG"/><use transform="matrix(0.05,0,0,0.05,10,0)" xlink:href="#aV"/><use transform="matrix(0.05,0,0,0.05,20,0)" xlink:href="#bj"/><use transform="matrix(0.05,0,0,0.05,34.95,0)" xlink:href="#bk"/><use transform="matrix(0.05,0,0,0.05,44.95,0)" xlink:href="#aJ"/><use transform="matrix(0.05,0,0,0.05,50.900000000000006,0)" xlink:href="#aI"/><use transform="matrix(0.05,0,0,0.05,60.900000000000006,0)" xlink:href="#aZ"/></g><path fill="#333" d="M185-189c-5-48-123-54-124 2 14 75 158 14 163 119 3 78-121 87-175 55-17-10-28-26-33-46l33-7c5 56 141 63 141-1 0-78-155-14-162-118-5-82 145-84 179-34 5 7 8 16 11 25" id="bl"/><path fill="#333" d="M177-190C167-65 218 103 67 71c-23-6-38-20-44-43l32-5c15 47 100 32 89-28v-30C133-14 115 1 83 1 29 1 15-40 15-95c0-56 16-97 71-98 29-1 48 16 59 35 1-10 0-23 2-32h30zM94-22c36 0 50-32 50-73 0-42-14-75-50-75-39 0-46 34-46 75s6 73 46 73" id="bm"/><g id="h"><use transform="matrix(0.05,0,0,0.05,0,0)" xlink:href="#bl"/><use transform="matrix(0.05,0,0,0.05,12,0)" xlink:href="#aH"/><use transform="matrix(0.05,0,0,0.05,17,0)" xlink:href="#aJ"/><use transform="matrix(0.05,0,0,0.05,22.95,0)" xlink:href="#aF"/><use transform="matrix(0.05,0,0,0.05,26.899999999999995,0)" xlink:href="#aG"/><use transform="matrix(0.05,0,0,0.05,36.9,0)" xlink:href="#bm"/></g><path fill="#333" d="M85-194c31 0 48 13 60 33l-1-100h32l1 261h-30c-2-10 0-23-3-31C134-8 116 4 85 4 32 4 16-35 15-94c0-66 23-100 70-100zm9 24c-40 0-46 34-46 75 0 40 6 74 45 74 42 0 51-32 51-76 0-42-9-74-50-73" id="bn"/><g id="i"><use transform="matrix(0.05,0,0,0.05,0,0)" xlink:href="#bn"/><use transform="matrix(0.05,0,0,0.05,10,0)" xlink:href="#aG"/><use transform="matrix(0.05,0,0,0.05,20,0)" xlink:href="#aF"/><use transform="matrix(0.05,0,0,0.05,23.95,0)" xlink:href="#aZ"/></g><path fill="#333" d="M33 0v-248h34V0H33" id="bo"/><g id="j"><use transform="matrix(0.05,0,0,0.05,0,0)" xlink:href="#bo"/><use transform="matrix(0.05,0,0,0.05,5,0)" xlink:href="#aG"/><use transform="matrix(0.05,0,0,0.05,15,0)" xlink:href="#aH"/><use transform="matrix(0.05,0,0,0.05,20,0)" xlink:href="#aI"/><use transform="matrix(0.05,0,0,0.05,30,0)" xlink:href="#bm"/><use transform="matrix(0.05,0,0,0.05,40,0)" xlink:href="#aI"/><use transform="matrix(0.05,0,0,0.05,50,0)" xlink:href="#aJ"/></g><g id="k"><use transform="matrix(0.05,0,0,0.05,0,0)" xlink:href="#bj"/><use transform="matrix(0.05,0,0,0.05,14.950000000000001,0)" xlink:href="#aL"/><use transform="matrix(0.05,0,0,0.05,24.950000000000003,0)" xlink:href="#aF"/><use transform="matrix(0.05,0,0,0.05,28.900000000000002,0)" xlink:href="#aS"/><use transform="matrix(0.05,0,0,0.05,32.85,0)" xlink:href="#aZ"/></g><g id="l"><use transform="matrix(0.05,0,0,0.05,0,0)" xlink:href="#bl"/><use transform="matrix(0.05,0,0,0.05,12,0)" xlink:href="#aH"/><use transform="matrix(0.05,0,0,0.05,17,0)" xlink:href="#aF"/><use transform="matrix(0.05,0,0,0.05,20.95,0)" xlink:href="#aG"/><use transform="matrix(0.05,0,0,0.05,30.950000000000003,0)" xlink:href="#bm"/></g><g id="m"><use transform="matrix(0.05,0,0,0.05,0,0)" xlink:href="#aS"/><use transform="matrix(0.05,0,0,0.05,3.95,0)" xlink:href="#aV"/><use transform="matrix(0.05,0,0,0.05,13.949999999999998,0)" xlink:href="#aM"/><use transform="matrix(0.05,0,0,0.05,22.95,0)" xlink:href="#aL"/><use transform="matrix(0.05,0,0,0.05,32.95,0)" xlink:href="#aS"/><use transform="matrix(0.05,0,0,0.05,36.900000000000006,0)" xlink:href="#aF"/><use transform="matrix(0.05,0,0,0.05,40.85000000000001,0)" xlink:href="#bn"/><use transform="matrix(0.05,0,0,0.05,50.85000000000001,0)" xlink:href="#aL"/><use transform="matrix(0.05,0,0,0.05,60.85,0)" xlink:href="#bn"/><use transform="matrix(0.05,0,0,0.05,70.85000000000001,0)" xlink:href="#aZ"/></g><g id="n"><use transform="matrix(0.05,0,0,0.05,0,0)" xlink:href="#bl"/><use transform="matrix(0.05,0,0,0.05,12,0)" xlink:href="#aH"/><use transform="matrix(0.05,0,0,0.05,17,0)" xlink:href="#aJ"/><use transform="matrix(0.05,0,0,0.05,22.95,0)" xlink:href="#aF"/><use transform="matrix(0.05,0,0,0.05,26.899999999999995,0)" xlink:href="#aG"/><use transform="matrix(0.05,0,0,0.05,36.9,0)" xlink:href="#bm"/></g><path fill="#333" d="M118-107v75H92v-75H18v-26h74v-75h26v75h74v26h-74" id="bp"/><use transform="matrix(0.05,0,0,0.05,0,0)" xlink:href="#bp" id="o"/><g id="p"><use transform="matrix(0.05,0,0,0.05,0,0)" xlink:href="#aL"/><use transform="matrix(0.05,0,0,0.05,10,0)" xlink:href="#aS"/><use transform="matrix(0.05,0,0,0.05,13.949999999999998,0)" xlink:href="#aH"/><use transform="matrix(0.05,0,0,0.05,18.95,0)" xlink:href="#aL"/><use transform="matrix(0.05,0,0,0.05,28.950000000000003,0)" xlink:href="#bo"/><use transform="matrix(0.05,0,0,0.05,33.95,0)" xlink:href="#aG"/><use transform="matrix(0.05,0,0,0.05,43.95,0)" xlink:href="#bj"/><use transform="matrix(0.05,0,0,0.05,58.900000000000006,0)" xlink:href="#aT"/><use transform="matrix(0.05,0,0,0.05,68.9,0)" xlink:href="#aI"/><use transform="matrix(0.05,0,0,0.05,78.9,0)" xlink:href="#bk"/><use transform="matrix(0.05,0,0,0.05,88.9,0)" xlink:href="#aS"/><use transform="matrix(0.05,0,0,0.05,92.85000000000001,0)" xlink:href="#aI"/><use transform="matrix(0.05,0,0,0.05,102.85000000000001,0)" xlink:href="#aX"/></g><path fill="#333" d="M30-248c87 1 191-15 191 75 0 78-77 80-158 76V0H30v-248zm33 125c57 0 124 11 124-50 0-59-68-47-124-48v98" id="bq"/><g id="q"><use transform="matrix(0.05,0,0,0.05,0,0)" xlink:href="#aG"/><use transform="matrix(0.05,0,0,0.05,10,0)" xlink:href="#bq"/><use transform="matrix(0.05,0,0,0.05,22,0)" xlink:href="#aL"/><use transform="matrix(0.05,0,0,0.05,32,0)" xlink:href="#aJ"/><use transform="matrix(0.05,0,0,0.05,37.95,0)" xlink:href="#aH"/><use transform="matrix(0.05,0,0,0.05,42.95,0)" xlink:href="#aF"/><use transform="matrix(0.05,0,0,0.05,46.900000000000006,0)" xlink:href="#bn"/><use transform="matrix(0.05,0,0,0.05,56.900000000000006,0)" xlink:href="#aV"/><use transform="matrix(0.05,0,0,0.05,66.9,0)" xlink:href="#aZ"/></g><path fill="#333" d="M68-38c1 34 0 65-14 84H32c9-13 17-26 17-46H33v-38h35" id="br"/><g id="r"><use transform="matrix(0.05,0,0,0.05,0,0)" xlink:href="#bo"/><use transform="matrix(0.05,0,0,0.05,5,0)" xlink:href="#aG"/><use transform="matrix(0.05,0,0,0.05,15,0)" xlink:href="#aH"/><use transform="matrix(0.05,0,0,0.05,20,0)" xlink:href="#aI"/><use transform="matrix(0.05,0,0,0.05,30,0)" xlink:href="#bm"/><use transform="matrix(0.05,0,0,0.05,40,0)" xlink:href="#aI"/><use transform="matrix(0.05,0,0,0.05,50,0)" xlink:href="#aJ"/><use transform="matrix(0.05,0,0,0.05,54.95,0)" xlink:href="#br"/></g><path fill="#333" d="M108 0H70L1-190h34L89-25l56-165h34" id="bs"/><path fill="#333" d="M30 0v-248h33v221h125V0H30" id="bt"/><g id="s"><use transform="matrix(0.05,0,0,0.05,0,0)" xlink:href="#bs"/><use transform="matrix(0.05,0,0,0.05,9,0)" xlink:href="#bt"/><use transform="matrix(0.05,0,0,0.05,19,0)" xlink:href="#aV"/><use transform="matrix(0.05,0,0,0.05,29,0)" xlink:href="#aH"/><use transform="matrix(0.05,0,0,0.05,34,0)" xlink:href="#aI"/><use transform="matrix(0.05,0,0,0.05,44,0)" xlink:href="#aZ"/></g><g id="t"><use transform="matrix(0.05,0,0,0.05,0,0)" xlink:href="#ba"/><use transform="matrix(0.05,0,0,0.05,12.950000000000001,0)" xlink:href="#aI"/><use transform="matrix(0.05,0,0,0.05,22.950000000000003,0)" xlink:href="#aL"/><use transform="matrix(0.05,0,0,0.05,32.95,0)" xlink:href="#aS"/><use transform="matrix(0.05,0,0,0.05,36.900000000000006,0)" xlink:href="#br"/></g><path fill="#333" d="M30 0v-248h187v28H63v79h144v27H63v87h162V0H30" id="bu"/><g id="u"><use transform="matrix(0.05,0,0,0.05,0,0)" xlink:href="#bs"/><use transform="matrix(0.05,0,0,0.05,9,0)" xlink:href="#bu"/><use transform="matrix(0.05,0,0,0.05,21,0)" xlink:href="#bn"/><use transform="matrix(0.05,0,0,0.05,31,0)" xlink:href="#aF"/><use transform="matrix(0.05,0,0,0.05,34.95,0)" xlink:href="#aK"/><use transform="matrix(0.05,0,0,0.05,39.95,0)" xlink:href="#aF"/><use transform="matrix(0.05,0,0,0.05,43.900000000000006,0)" xlink:href="#aM"/><use transform="matrix(0.05,0,0,0.05,52.900000000000006,0)" xlink:href="#aL"/><use transform="matrix(0.05,0,0,0.05,62.900000000000006,0)" xlink:href="#aM"/><use transform="matrix(0.05,0,0,0.05,71.9,0)" xlink:href="#aF"/><use transform="matrix(0.05,0,0,0.05,75.85000000000001,0)" xlink:href="#aV"/><use transform="matrix(0.05,0,0,0.05,85.85000000000001,0)" xlink:href="#aG"/><use transform="matrix(0.05,0,0,0.05,95.85000000000001,0)" xlink:href="#aZ"/></g><g id="v"><use transform="matrix(0.05,0,0,0.05,0,0)" xlink:href="#ba"/><use transform="matrix(0.05,0,0,0.05,12.950000000000001,0)" xlink:href="#aI"/><use transform="matrix(0.05,0,0,0.05,22.950000000000003,0)" xlink:href="#aL"/><use transform="matrix(0.05,0,0,0.05,32.95,0)" xlink:href="#aS"/></g><g id="w"><use transform="matrix(0.05,0,0,0.05,0,0)" xlink:href="#aY"/><use transform="matrix(0.05,0,0,0.05,5.95,0)" xlink:href="#aZ"/></g><g id="x"><use transform="matrix(0.05,0,0,0.05,0,0)" xlink:href="#bo"/><use transform="matrix(0.05,0,0,0.05,5,0)" xlink:href="#aG"/><use transform="matrix(0.05,0,0,0.05,15,0)" xlink:href="#bj"/><use transform="matrix(0.05,0,0,0.05,29.950000000000003,0)" xlink:href="#aT"/><use transform="matrix(0.05,0,0,0.05,39.95,0)" xlink:href="#aI"/><use transform="matrix(0.05,0,0,0.05,49.95,0)" xlink:href="#bk"/><use transform="matrix(0.05,0,0,0.05,59.95,0)" xlink:href="#aS"/><use transform="matrix(0.05,0,0,0.05,63.900000000000006,0)" xlink:href="#aI"/></g><use transform="matrix(0.05,0,0,0.05,0,0)" xlink:href="#bp" id="y"/><path fill="#333" d="M115-194c55 1 70 41 70 98S169 2 115 4C84 4 66-9 55-30l1 105H24l-1-265h31l2 30c10-21 28-34 59-34zm-8 174c40 0 45-34 45-75s-6-73-45-74c-42 0-51 32-51 76 0 43 10 73 51 73" id="bv"/><g id="z"><use transform="matrix(0.05,0,0,0.05,0,0)" xlink:href="#bv"/><use transform="matrix(0.05,0,0,0.05,10,0)" xlink:href="#aL"/><use transform="matrix(0.05,0,0,0.05,20,0)" xlink:href="#aH"/><use transform="matrix(0.05,0,0,0.05,25,0)" xlink:href="#aI"/><use transform="matrix(0.05,0,0,0.05,35,0)" xlink:href="#aG"/><use transform="matrix(0.05,0,0,0.05,45,0)" xlink:href="#aH"/><use transform="matrix(0.05,0,0,0.05,50,0)" xlink:href="#aI"/><use transform="matrix(0.05,0,0,0.05,60,0)" xlink:href="#aZ"/></g><g id="A"><use transform="matrix(0.05,0,0,0.05,0,0)" xlink:href="#bl"/><use transform="matrix(0.05,0,0,0.05,12,0)" xlink:href="#aH"/><use transform="matrix(0.05,0,0,0.05,17,0)" xlink:href="#aJ"/><use transform="matrix(0.05,0,0,0.05,22.95,0)" xlink:href="#aF"/><use transform="matrix(0.05,0,0,0.05,26.899999999999995,0)" xlink:href="#aG"/><use transform="matrix(0.05,0,0,0.05,36.9,0)" xlink:href="#bm"/><use transform="matrix(0.05,0,0,0.05,46.9,0)" xlink:href="#br"/></g><g id="B"><use transform="matrix(0.05,0,0,0.05,0,0)" xlink:href="#bj"/><use transform="matrix(0.05,0,0,0.05,14.950000000000001,0)" xlink:href="#aL"/><use transform="matrix(0.05,0,0,0.05,24.950000000000003,0)" xlink:href="#aJ"/><use transform="matrix(0.05,0,0,0.05,30.900000000000002,0)" xlink:href="#aM"/><use transform="matrix(0.05,0,0,0.05,39.900000000000006,0)" xlink:href="#aL"/><use transform="matrix(0.05,0,0,0.05,49.900000000000006,0)" xlink:href="#aZ"/></g><g id="C"><use transform="matrix(0.05,0,0,0.05,0,0)" xlink:href="#aK"/><use transform="matrix(0.05,0,0,0.05,4.65,0)" xlink:href="#aK"/><use transform="matrix(0.05,0,0,0.05,9.65,0)" xlink:href="#aL"/><use transform="matrix(0.05,0,0,0.05,19.65,0)" xlink:href="#bk"/><use transform="matrix(0.05,0,0,0.05,29.649999999999995,0)" xlink:href="#aJ"/><use transform="matrix(0.05,0,0,0.05,35.6,0)" xlink:href="#aF"/><use transform="matrix(0.05,0,0,0.05,39.550000000000004,0)" xlink:href="#aM"/><use transform="matrix(0.05,0,0,0.05,48.550000000000004,0)" xlink:href="#aL"/><use transform="matrix(0.05,0,0,0.05,58.550000000000004,0)" xlink:href="#aM"/><use transform="matrix(0.05,0,0,0.05,67.55000000000001,0)" xlink:href="#aF"/><use transform="matrix(0.05,0,0,0.05,71.50000000000001,0)" xlink:href="#aV"/><use transform="matrix(0.05,0,0,0.05,81.50000000000001,0)" xlink:href="#aG"/><use transform="matrix(0.05,0,0,0.05,91.50000000000001,0)" xlink:href="#aZ"/></g><path fill="#333" d="M30-248c118-7 216 8 213 122C240-48 200 0 122 0H30v-248zM63-27c89 8 146-16 146-99s-60-101-146-95v194" id="bw"/><g id="D"><use transform="matrix(0.05,0,0,0.05,0,0)" xlink:href="#bt"/><use transform="matrix(0.05,0,0,0.05,10,0)" xlink:href="#aV"/><use transform="matrix(0.05,0,0,0.05,20,0)" xlink:href="#aM"/><use transform="matrix(0.05,0,0,0.05,29,0)" xlink:href="#aL"/><use transform="matrix(0.05,0,0,0.05,39,0)" xlink:href="#aS"/><use transform="matrix(0.05,0,0,0.05,42.95,0)" xlink:href="#bw"/><use transform="matrix(0.05,0,0,0.05,55.900000000000006,0)" xlink:href="#aL"/><use transform="matrix(0.05,0,0,0.05,65.9,0)" xlink:href="#aH"/><use transform="matrix(0.05,0,0,0.05,70.9,0)" xlink:href="#aI"/><use transform="matrix(0.05,0,0,0.05,80.9,0)" xlink:href="#br"/></g><g id="E"><use transform="matrix(0.05,0,0,0.05,0,0)" xlink:href="#bs"/><use transform="matrix(0.05,0,0,0.05,9,0)" xlink:href="#aL"/><use transform="matrix(0.05,0,0,0.05,19,0)" xlink:href="#aS"/><use transform="matrix(0.05,0,0,0.05,22.95,0)" xlink:href="#aV"/><use transform="matrix(0.05,0,0,0.05,32.95,0)" xlink:href="#aJ"/><use transform="matrix(0.05,0,0,0.05,38.900000000000006,0)" xlink:href="#aZ"/></g><g id="F"><use transform="matrix(0.05,0,0,0.05,0,0)" xlink:href="#aJ"/><use transform="matrix(0.05,0,0,0.05,5.95,0)" xlink:href="#aI"/><use transform="matrix(0.05,0,0,0.05,15.949999999999998,0)" xlink:href="#aL"/><use transform="matrix(0.05,0,0,0.05,25.950000000000003,0)" xlink:href="#aS"/></g><g id="G"><use transform="matrix(0.05,0,0,0.05,0,0)" xlink:href="#aY"/><use transform="matrix(0.05,0,0,0.05,5.95,0)" xlink:href="#aZ"/></g><g id="H"><use transform="matrix(0.05,0,0,0.05,0,0)" xlink:href="#aL"/><use transform="matrix(0.05,0,0,0.05,10,0)" xlink:href="#aS"/><use transform="matrix(0.05,0,0,0.05,13.949999999999998,0)" xlink:href="#aH"/><use transform="matrix(0.05,0,0,0.05,18.95,0)" xlink:href="#aL"/><use transform="matrix(0.05,0,0,0.05,28.950000000000003,0)" xlink:href="#bu"/><use transform="matrix(0.05,0,0,0.05,40.95,0)" xlink:href="#bj"/><use transform="matrix(0.05,0,0,0.05,55.900000000000006,0)" xlink:href="#bk"/><use transform="matrix(0.05,0,0,0.05,65.9,0)" xlink:href="#aL"/><use transform="matrix(0.05,0,0,0.05,75.9,0)" xlink:href="#aJ"/><use transform="matrix(0.05,0,0,0.05,81.85000000000001,0)" xlink:href="#aM"/><use transform="matrix(0.05,0,0,0.05,90.85000000000001,0)" xlink:href="#aL"/><use transform="matrix(0.05,0,0,0.05,100.85000000000001,0)" xlink:href="#aM"/><use transform="matrix(0.05,0,0,0.05,109.85000000000001,0)" xlink:href="#aF"/><use transform="matrix(0.05,0,0,0.05,113.80000000000001,0)" xlink:href="#aV"/><use transform="matrix(0.05,0,0,0.05,123.80000000000001,0)" xlink:href="#aG"/><use transform="matrix(0.05,0,0,0.05,133.8,0)" xlink:href="#aX"/><use transform="matrix(0.05,0,0,0.05,139.75,0)" xlink:href="#bv"/><use transform="matrix(0.05,0,0,0.05,149.75,0)" xlink:href="#aL"/><use transform="matrix(0.05,0,0,0.05,159.75,0)" xlink:href="#aH"/><use transform="matrix(0.05,0,0,0.05,164.75,0)" xlink:href="#aI"/><use transform="matrix(0.05,0,0,0.05,174.75,0)" xlink:href="#aG"/><use transform="matrix(0.05,0,0,0.05,184.75,0)" xlink:href="#aH"/><use transform="matrix(0.05,0,0,0.05,189.75,0)" xlink:href="#aI"/><use transform="matrix(0.05,0,0,0.05,199.75,0)" xlink:href="#aZ"/></g><g id="I"><use transform="matrix(0.05,0,0,0.05,0,0)" xlink:href="#bl"/><use transform="matrix(0.05,0,0,0.05,12,0)" xlink:href="#aH"/><use transform="matrix(0.05,0,0,0.05,17,0)" xlink:href="#aJ"/><use transform="matrix(0.05,0,0,0.05,22.95,0)" xlink:href="#aF"/><use transform="matrix(0.05,0,0,0.05,26.899999999999995,0)" xlink:href="#aG"/><use transform="matrix(0.05,0,0,0.05,36.9,0)" xlink:href="#bm"/><use transform="matrix(0.05,0,0,0.05,46.9,0)" xlink:href="#br"/></g><g id="J"><use transform="matrix(0.05,0,0,0.05,0,0)" xlink:href="#bt"/><use transform="matrix(0.05,0,0,0.05,10,0)" xlink:href="#aV"/><use transform="matrix(0.05,0,0,0.05,20,0)" xlink:href="#aM"/><use transform="matrix(0.05,0,0,0.05,29,0)" xlink:href="#aL"/><use transform="matrix(0.05,0,0,0.05,39,0)" xlink:href="#aS"/><use transform="matrix(0.05,0,0,0.05,42.95,0)" xlink:href="#bw"/><use transform="matrix(0.05,0,0,0.05,55.900000000000006,0)" xlink:href="#aL"/><use transform="matrix(0.05,0,0,0.05,65.9,0)" xlink:href="#aH"/><use transform="matrix(0.05,0,0,0.05,70.9,0)" xlink:href="#aI"/><use transform="matrix(0.05,0,0,0.05,80.9,0)" xlink:href="#br"/></g><g id="K"><use transform="matrix(0.05,0,0,0.05,0,0)" xlink:href="#bs"/><use transform="matrix(0.05,0,0,0.05,9,0)" xlink:href="#aL"/><use transform="matrix(0.05,0,0,0.05,19,0)" xlink:href="#aS"/><use transform="matrix(0.05,0,0,0.05,22.95,0)" xlink:href="#aV"/><use transform="matrix(0.05,0,0,0.05,32.95,0)" xlink:href="#aJ"/><use transform="matrix(0.05,0,0,0.05,38.900000000000006,0)" xlink:href="#aZ"/></g><g id="L"><use transform="matrix(0.05,0,0,0.05,0,0)" xlink:href="#ba"/><use transform="matrix(0.05,0,0,0.05,12.950000000000001,0)" xlink:href="#aI"/><use transform="matrix(0.05,0,0,0.05,22.950000000000003,0)" xlink:href="#aL"/><use transform="matrix(0.05,0,0,0.05,32.95,0)" xlink:href="#aS"/><use transform="matrix(0.05,0,0,0.05,36.900000000000006,0)" xlink:href="#aY"/><use transform="matrix(0.05,0,0,0.05,42.85000000000001,0)" xlink:href="#aZ"/></g><g id="M"><use transform="matrix(0.05,0,0,0.05,0,0)" xlink:href="#bu"/><use transform="matrix(0.05,0,0,0.05,12,0)" xlink:href="#bj"/><use transform="matrix(0.05,0,0,0.05,26.950000000000003,0)" xlink:href="#bk"/><use transform="matrix(0.05,0,0,0.05,36.95,0)" xlink:href="#aL"/><use transform="matrix(0.05,0,0,0.05,46.95,0)" xlink:href="#aJ"/><use transform="matrix(0.05,0,0,0.05,52.900000000000006,0)" xlink:href="#aM"/><use transform="matrix(0.05,0,0,0.05,61.900000000000006,0)" xlink:href="#aL"/><use transform="matrix(0.05,0,0,0.05,71.9,0)" xlink:href="#aM"/><use transform="matrix(0.05,0,0,0.05,80.9,0)" xlink:href="#aF"/><use transform="matrix(0.05,0,0,0.05,84.85000000000001,0)" xlink:href="#aV"/><use transform="matrix(0.05,0,0,0.05,94.85000000000001,0)" xlink:href="#aG"/></g><path fill="#333" d="M127-220V0H93v-220H8v-28h204v28h-85" id="bx"/><g id="N"><use transform="matrix(0.05,0,0,0.05,0,0)" xlink:href="#aM"/><use transform="matrix(0.05,0,0,0.05,9,0)" xlink:href="#aL"/><use transform="matrix(0.05,0,0,0.05,19,0)" xlink:href="#aS"/><use transform="matrix(0.05,0,0,0.05,22.95,0)" xlink:href="#aM"/><use transform="matrix(0.05,0,0,0.05,31.950000000000003,0)" xlink:href="#aT"/><use transform="matrix(0.05,0,0,0.05,41.95,0)" xlink:href="#aS"/><use transform="matrix(0.05,0,0,0.05,45.900000000000006,0)" xlink:href="#aL"/><use transform="matrix(0.05,0,0,0.05,55.900000000000006,0)" xlink:href="#aJ"/><use transform="matrix(0.05,0,0,0.05,61.85,0)" xlink:href="#bo"/><use transform="matrix(0.05,0,0,0.05,66.85000000000001,0)" xlink:href="#bj"/><use transform="matrix(0.05,0,0,0.05,81.80000000000001,0)" xlink:href="#bv"/><use transform="matrix(0.05,0,0,0.05,91.80000000000001,0)" xlink:href="#aT"/><use transform="matrix(0.05,0,0,0.05,101.80000000000001,0)" xlink:href="#aI"/><use transform="matrix(0.05,0,0,0.05,111.80000000000001,0)" xlink:href="#aW"/><use transform="matrix(0.05,0,0,0.05,120.80000000000001,0)" xlink:href="#aH"/><use transform="matrix(0.05,0,0,0.05,125.80000000000001,0)" xlink:href="#aV"/><use transform="matrix(0.05,0,0,0.05,135.8,0)" xlink:href="#bx"/><use transform="matrix(0.05,0,0,0.05,144.75,0)" xlink:href="#aV"/><use transform="matrix(0.05,0,0,0.05,154.75,0)" xlink:href="#aH"/><use transform="matrix(0.05,0,0,0.05,159.75,0)" xlink:href="#aL"/><use transform="matrix(0.05,0,0,0.05,169.75,0)" xlink:href="#aS"/><use transform="matrix(0.05,0,0,0.05,173.7,0)" xlink:href="#aX"/><use transform="matrix(0.05,0,0,0.05,179.64999999999998,0)" xlink:href="#aY"/><use transform="matrix(0.05,0,0,0.05,185.59999999999997,0)" xlink:href="#aZ"/><use transform="matrix(0.05,0,0,0.05,190.59999999999997,0)" xlink:href="#ba"/><use transform="matrix(0.05,0,0,0.05,203.54999999999995,0)" xlink:href="#aI"/><use transform="matrix(0.05,0,0,0.05,213.54999999999995,0)" xlink:href="#aL"/><use transform="matrix(0.05,0,0,0.05,223.54999999999995,0)" xlink:href="#aS"/></g><g id="O"><use transform="matrix(0.05,0,0,0.05,0,0)" xlink:href="#bl"/><use transform="matrix(0.05,0,0,0.05,12,0)" xlink:href="#aF"/><use transform="matrix(0.05,0,0,0.05,15.949999999999998,0)" xlink:href="#aW"/><use transform="matrix(0.05,0,0,0.05,24.95,0)" xlink:href="#aH"/><use transform="matrix(0.05,0,0,0.05,29.950000000000003,0)" xlink:href="#aI"/><use transform="matrix(0.05,0,0,0.05,39.95,0)" xlink:href="#bj"/><use transform="matrix(0.05,0,0,0.05,54.900000000000006,0)" xlink:href="#aL"/></g><g id="P"><use transform="matrix(0.05,0,0,0.05,0,0)" xlink:href="#aL"/><use transform="matrix(0.05,0,0,0.05,10,0)" xlink:href="#bm"/><use transform="matrix(0.05,0,0,0.05,20,0)" xlink:href="#aJ"/><use transform="matrix(0.05,0,0,0.05,25.950000000000003,0)" xlink:href="#aI"/><use transform="matrix(0.05,0,0,0.05,35.95,0)" xlink:href="#bm"/><use transform="matrix(0.05,0,0,0.05,45.95,0)" xlink:href="#aL"/><use transform="matrix(0.05,0,0,0.05,55.95,0)" xlink:href="#aJ"/><use transform="matrix(0.05,0,0,0.05,61.900000000000006,0)" xlink:href="#aX"/></g><g id="R"><use transform="matrix(0.05,0,0,0.05,0,0)" xlink:href="#bl"/><use transform="matrix(0.05,0,0,0.05,12,0)" xlink:href="#aH"/><use transform="matrix(0.05,0,0,0.05,17,0)" xlink:href="#aJ"/><use transform="matrix(0.05,0,0,0.05,22.95,0)" xlink:href="#aF"/><use transform="matrix(0.05,0,0,0.05,26.899999999999995,0)" xlink:href="#aG"/><use transform="matrix(0.05,0,0,0.05,36.9,0)" xlink:href="#bm"/><use transform="matrix(0.05,0,0,0.05,46.9,0)" xlink:href="#br"/></g><g id="S"><use transform="matrix(0.05,0,0,0.05,0,0)" xlink:href="#bn"/><use transform="matrix(0.05,0,0,0.05,10,0)" xlink:href="#aG"/><use transform="matrix(0.05,0,0,0.05,20,0)" xlink:href="#aF"/><use transform="matrix(0.05,0,0,0.05,23.95,0)" xlink:href="#aZ"/></g><path fill="#333" d="M179-190L93 31C79 59 56 82 12 73V49c39 6 53-20 64-50L1-190h34L92-34l54-156h33" id="by"/><g id="T"><use transform="matrix(0.05,0,0,0.05,0,0)" xlink:href="#bo"/><use transform="matrix(0.05,0,0,0.05,5,0)" xlink:href="#aG"/><use transform="matrix(0.05,0,0,0.05,15,0)" xlink:href="#aH"/><use transform="matrix(0.05,0,0,0.05,20,0)" xlink:href="#aI"/><use transform="matrix(0.05,0,0,0.05,30,0)" xlink:href="#bm"/><use transform="matrix(0.05,0,0,0.05,40,0)" xlink:href="#aI"/><use transform="matrix(0.05,0,0,0.05,50,0)" xlink:href="#aJ"/><use transform="matrix(0.05,0,0,0.05,55.95,0)" xlink:href="#aY"/><use transform="matrix(0.05,0,0,0.05,61.900000000000006,0)" xlink:href="#aZ"/><use transform="matrix(0.05,0,0,0.05,66.9,0)" xlink:href="#aU"/><use transform="matrix(0.05,0,0,0.05,79.85000000000001,0)" xlink:href="#aV"/><use transform="matrix(0.05,0,0,0.05,89.85000000000001,0)" xlink:href="#aG"/><use transform="matrix(0.05,0,0,0.05,99.85000000000001,0)" xlink:href="#aH"/><use transform="matrix(0.05,0,0,0.05,104.85000000000001,0)" xlink:href="#aJ"/><use transform="matrix(0.05,0,0,0.05,110.80000000000001,0)" xlink:href="#aF"/><use transform="matrix(0.05,0,0,0.05,114.75,0)" xlink:href="#bk"/><use transform="matrix(0.05,0,0,0.05,124.75,0)" xlink:href="#aT"/><use transform="matrix(0.05,0,0,0.05,134.75,0)" xlink:href="#by"/><use transform="matrix(0.05,0,0,0.05,143.75,0)" xlink:href="#aI"/><use transform="matrix(0.05,0,0,0.05,153.75,0)" xlink:href="#aG"/><use transform="matrix(0.05,0,0,0.05,163.75,0)" xlink:href="#aH"/><use transform="matrix(0.05,0,0,0.05,168.75,0)" xlink:href="#aI"/></g><path fill="#333" d="M240 0l2-218c-23 76-54 145-80 218h-23L58-218 59 0H30v-248h44l77 211c21-75 51-140 76-211h43V0h-30" id="bz"/><g id="U"><use transform="matrix(0.05,0,0,0.05,0,0)" xlink:href="#bz"/><use transform="matrix(0.05,0,0,0.05,14.950000000000001,0)" xlink:href="#aL"/><use transform="matrix(0.05,0,0,0.05,24.950000000000003,0)" xlink:href="#aW"/><use transform="matrix(0.05,0,0,0.05,33.95,0)" xlink:href="#bq"/><use transform="matrix(0.05,0,0,0.05,45.95,0)" xlink:href="#aL"/><use transform="matrix(0.05,0,0,0.05,55.95,0)" xlink:href="#bm"/><use transform="matrix(0.05,0,0,0.05,65.95,0)" xlink:href="#aL"/><use transform="matrix(0.05,0,0,0.05,75.95,0)" xlink:href="#aG"/><use transform="matrix(0.05,0,0,0.05,85.95,0)" xlink:href="#aX"/></g><g id="V"><use transform="matrix(0.05,0,0,0.05,0,0)" xlink:href="#bt"/><use transform="matrix(0.05,0,0,0.05,10,0)" xlink:href="#aV"/><use transform="matrix(0.05,0,0,0.05,20,0)" xlink:href="#aM"/><use transform="matrix(0.05,0,0,0.05,29,0)" xlink:href="#aL"/><use transform="matrix(0.05,0,0,0.05,39,0)" xlink:href="#aS"/><use transform="matrix(0.05,0,0,0.05,42.95,0)" xlink:href="#aF"/><use transform="matrix(0.05,0,0,0.05,46.900000000000006,0)" xlink:href="#bn"/><use transform="matrix(0.05,0,0,0.05,56.900000000000006,0)" xlink:href="#aL"/><use transform="matrix(0.05,0,0,0.05,66.9,0)" xlink:href="#bn"/><use transform="matrix(0.05,0,0,0.05,76.9,0)" xlink:href="#aZ"/></g><g id="W"><use transform="matrix(0.05,0,0,0.05,0,0)" xlink:href="#aG"/><use transform="matrix(0.05,0,0,0.05,10,0)" xlink:href="#aZ"/></g><g id="X"><use transform="matrix(0.05,0,0,0.05,0,0)" xlink:href="#aY"/><use transform="matrix(0.05,0,0,0.05,5.95,0)" xlink:href="#aZ"/></g><path fill="#333" d="M26 75v-336h71v23H56V52h41v23H26" id="bA"/><path fill="#333" d="M80-196l47-18 7 23-49 13 32 44-20 13-27-46-27 45-21-12 33-44-49-13 8-23 47 19-2-53h23" id="bB"/><path fill="#333" d="M3 75V52h41v-290H3v-23h71V75H3" id="bC"/><g id="Y"><use transform="matrix(0.05,0,0,0.05,0,0)" xlink:href="#aU"/><use transform="matrix(0.05,0,0,0.05,12.950000000000001,0)" xlink:href="#aV"/><use transform="matrix(0.05,0,0,0.05,22.950000000000003,0)" xlink:href="#aG"/><use transform="matrix(0.05,0,0,0.05,32.95,0)" xlink:href="#aH"/><use transform="matrix(0.05,0,0,0.05,37.95,0)" xlink:href="#aJ"/><use transform="matrix(0.05,0,0,0.05,43.900000000000006,0)" xlink:href="#aF"/><use transform="matrix(0.05,0,0,0.05,47.85000000000001,0)" xlink:href="#bk"/><use transform="matrix(0.05,0,0,0.05,57.85,0)" xlink:href="#aT"/><use transform="matrix(0.05,0,0,0.05,67.85000000000001,0)" xlink:href="#by"/><use transform="matrix(0.05,0,0,0.05,76.85000000000001,0)" xlink:href="#aI"/><use transform="matrix(0.05,0,0,0.05,86.85000000000001,0)" xlink:href="#aG"/><use transform="matrix(0.05,0,0,0.05,96.85000000000001,0)" xlink:href="#aH"/><use transform="matrix(0.05,0,0,0.05,101.85000000000001,0)" xlink:href="#aI"/><use transform="matrix(0.05,0,0,0.05,111.85000000000001,0)" xlink:href="#bA"/><use transform="matrix(0.05,0,0,0.05,116.85000000000001,0)" xlink:href="#bB"/><use transform="matrix(0.05,0,0,0.05,123.85000000000001,0)" xlink:href="#bC"/></g><path fill="#333" d="M15-91v-56l181-69v40L49-119l147 57v40" id="bD"/><path fill="#333" d="M133-34C117-15 103 5 69 4 32 3 11-16 11-54c-1-60 55-63 116-61 1-26-3-47-28-47-18 1-26 9-28 27l-52-2c7-38 36-58 82-57s74 22 75 68l1 82c-1 14 12 18 25 15v27c-30 8-71 5-69-32zm-48 3c29 0 43-24 42-57-32 0-66-3-65 30 0 17 8 27 23 27" id="bE"/><path fill="#333" d="M137-138c1-29-70-34-71-4 15 46 118 7 119 86 1 83-164 76-172 9l43-7c4 19 20 25 44 25 33 8 57-30 24-41C81-84 22-81 20-136c-2-80 154-74 161-7" id="bF"/><path fill="#333" d="M190-63c-7 42-38 67-86 67-59 0-84-38-90-98-12-110 154-137 174-36l-49 2c-2-19-15-32-35-32-30 0-35 28-38 64-6 74 65 87 74 30" id="bG"/><path fill="#333" d="M15-22v-40l146-57-146-57v-40l181 69v56" id="bH"/><g id="Z"><use transform="matrix(0.05,0,0,0.05,0,0)" xlink:href="#bD"/><use transform="matrix(0.05,0,0,0.05,10.5,0)" xlink:href="#bE"/><use transform="matrix(0.05,0,0,0.05,20.5,0)" xlink:href="#bf"/><use transform="matrix(0.05,0,0,0.05,31.450000000000003,0)" xlink:href="#bF"/><use transform="matrix(0.05,0,0,0.05,41.45,0)" xlink:href="#bd"/><use transform="matrix(0.05,0,0,0.05,47.400000000000006,0)" xlink:href="#be"/><use transform="matrix(0.05,0,0,0.05,54.400000000000006,0)" xlink:href="#bE"/><use transform="matrix(0.05,0,0,0.05,64.4,0)" xlink:href="#bG"/><use transform="matrix(0.05,0,0,0.05,74.4,0)" xlink:href="#bd"/><use transform="matrix(0.05,0,0,0.05,80.35000000000001,0)" xlink:href="#bH"/></g><path fill="#333" d="M147 0H94L2-248h55l64 206c17-72 42-137 63-206h54" id="bI"/><path fill="#333" d="M114-157C55-157 80-60 75 0H25v-261h50l-1 109c12-26 28-41 61-42 86-1 58 113 63 194h-50c-7-57 23-157-34-157" id="bJ"/><path fill="#333" d="M25 0v-261h50V0H25" id="bK"/><g id="aa"><use transform="matrix(0.05,0,0,0.05,0,0)" xlink:href="#bI"/><use transform="matrix(0.05,0,0,0.05,11,0)" xlink:href="#aQ"/><use transform="matrix(0.05,0,0,0.05,21,0)" xlink:href="#bJ"/><use transform="matrix(0.05,0,0,0.05,31.950000000000003,0)" xlink:href="#aP"/><use transform="matrix(0.05,0,0,0.05,36.95,0)" xlink:href="#bG"/><use transform="matrix(0.05,0,0,0.05,46.95,0)" xlink:href="#bg"/><use transform="matrix(0.05,0,0,0.05,57.900000000000006,0)" xlink:href="#bK"/><use transform="matrix(0.05,0,0,0.05,62.900000000000006,0)" xlink:href="#bc"/></g><path fill="#333" d="M106-169C34-169 62-67 57 0H25v-261h32l-1 103c12-21 28-36 61-36 89 0 53 116 60 194h-32v-121c2-32-8-49-39-48" id="bL"/><path fill="#333" d="M63-220v92h138v28H63V0H30v-248h175v28H63" id="bM"/><g id="ab"><use transform="matrix(0.05,0,0,0.05,0,0)" xlink:href="#aK"/><use transform="matrix(0.05,0,0,0.05,5,0)" xlink:href="#aI"/><use transform="matrix(0.05,0,0,0.05,15,0)" xlink:href="#aM"/><use transform="matrix(0.05,0,0,0.05,24,0)" xlink:href="#bL"/><use transform="matrix(0.05,0,0,0.05,34,0)" xlink:href="#aL"/><use transform="matrix(0.05,0,0,0.05,44,0)" xlink:href="#bM"/><use transform="matrix(0.05,0,0,0.05,54.95,0)" xlink:href="#aL"/><use transform="matrix(0.05,0,0,0.05,64.95,0)" xlink:href="#bk"/><use transform="matrix(0.05,0,0,0.05,74.95,0)" xlink:href="#aJ"/><use transform="matrix(0.05,0,0,0.05,80.9,0)" xlink:href="#aF"/><use transform="matrix(0.05,0,0,0.05,84.85000000000001,0)" xlink:href="#aM"/><use transform="matrix(0.05,0,0,0.05,93.85000000000001,0)" xlink:href="#aL"/><use transform="matrix(0.05,0,0,0.05,103.85000000000001,0)" xlink:href="#aM"/><use transform="matrix(0.05,0,0,0.05,112.85000000000001,0)" xlink:href="#aF"/><use transform="matrix(0.05,0,0,0.05,116.80000000000001,0)" xlink:href="#aV"/><use transform="matrix(0.05,0,0,0.05,126.80000000000001,0)" xlink:href="#aG"/><use transform="matrix(0.05,0,0,0.05,136.8,0)" xlink:href="#aZ"/></g><g id="ac"><use transform="matrix(0.05,0,0,0.05,0,0)" xlink:href="#bt"/><use transform="matrix(0.05,0,0,0.05,10,0)" xlink:href="#aV"/><use transform="matrix(0.05,0,0,0.05,20,0)" xlink:href="#aM"/><use transform="matrix(0.05,0,0,0.05,29,0)" xlink:href="#aL"/><use transform="matrix(0.05,0,0,0.05,39,0)" xlink:href="#aS"/><use transform="matrix(0.05,0,0,0.05,42.95,0)" xlink:href="#bw"/><use transform="matrix(0.05,0,0,0.05,55.900000000000006,0)" xlink:href="#aL"/><use transform="matrix(0.05,0,0,0.05,65.9,0)" xlink:href="#aH"/><use transform="matrix(0.05,0,0,0.05,70.9,0)" xlink:href="#aI"/></g><g id="ad"><use transform="matrix(0.05,0,0,0.05,0,0)" xlink:href="#aM"/><use transform="matrix(0.05,0,0,0.05,9,0)" xlink:href="#aL"/><use transform="matrix(0.05,0,0,0.05,19,0)" xlink:href="#aS"/><use transform="matrix(0.05,0,0,0.05,22.95,0)" xlink:href="#aM"/><use transform="matrix(0.05,0,0,0.05,31.950000000000003,0)" xlink:href="#aT"/><use transform="matrix(0.05,0,0,0.05,41.95,0)" xlink:href="#aS"/><use transform="matrix(0.05,0,0,0.05,45.900000000000006,0)" xlink:href="#aL"/><use transform="matrix(0.05,0,0,0.05,55.900000000000006,0)" xlink:href="#aJ"/><use transform="matrix(0.05,0,0,0.05,61.85,0)" xlink:href="#aU"/><use transform="matrix(0.05,0,0,0.05,74.80000000000001,0)" xlink:href="#aV"/><use transform="matrix(0.05,0,0,0.05,84.80000000000001,0)" xlink:href="#aW"/><use transform="matrix(0.05,0,0,0.05,93.80000000000001,0)" xlink:href="#aH"/><use transform="matrix(0.05,0,0,0.05,98.80000000000001,0)" xlink:href="#aV"/><use transform="matrix(0.05,0,0,0.05,108.80000000000001,0)" xlink:href="#aX"/><use transform="matrix(0.05,0,0,0.05,114.75,0)" xlink:href="#aY"/><use transform="matrix(0.05,0,0,0.05,120.7,0)" xlink:href="#aZ"/></g><g id="ae"><use transform="matrix(0.05,0,0,0.05,0,0)" xlink:href="#ba"/><use transform="matrix(0.05,0,0,0.05,12.950000000000001,0)" xlink:href="#aI"/><use transform="matrix(0.05,0,0,0.05,22.950000000000003,0)" xlink:href="#aL"/><use transform="matrix(0.05,0,0,0.05,32.95,0)" xlink:href="#aS"/></g><path fill="#333" d="M137 0h-34L2-248h35l83 218 83-218h36" id="bN"/><g id="af"><use transform="matrix(0.05,0,0,0.05,0,0)" xlink:href="#bm"/><use transform="matrix(0.05,0,0,0.05,10,0)" xlink:href="#aI"/><use transform="matrix(0.05,0,0,0.05,20,0)" xlink:href="#aH"/><use transform="matrix(0.05,0,0,0.05,25,0)" xlink:href="#bN"/><use transform="matrix(0.05,0,0,0.05,35.65,0)" xlink:href="#aL"/><use transform="matrix(0.05,0,0,0.05,45.65,0)" xlink:href="#aS"/><use transform="matrix(0.05,0,0,0.05,49.6,0)" xlink:href="#aV"/><use transform="matrix(0.05,0,0,0.05,59.6,0)" xlink:href="#aJ"/><use transform="matrix(0.05,0,0,0.05,65.55,0)" xlink:href="#aX"/><use transform="matrix(0.05,0,0,0.05,71.5,0)" xlink:href="#aY"/><use transform="matrix(0.05,0,0,0.05,77.45,0)" xlink:href="#aZ"/></g><path fill="#333" d="M18-100v-36l175-74v27L42-118l151 64v27" id="bO"/><path fill="#333" d="M18-27v-27l151-64-151-65v-27l175 74v36" id="bP"/><g id="ag"><use transform="matrix(0.05,0,0,0.05,0,0)" xlink:href="#bO"/><use transform="matrix(0.05,0,0,0.05,10.5,0)" xlink:href="#bO"/><use transform="matrix(0.05,0,0,0.05,21,0)" xlink:href="#aM"/><use transform="matrix(0.05,0,0,0.05,30,0)" xlink:href="#aJ"/><use transform="matrix(0.05,0,0,0.05,35.95,0)" xlink:href="#aI"/><use transform="matrix(0.05,0,0,0.05,45.95,0)" xlink:href="#aL"/><use transform="matrix(0.05,0,0,0.05,55.95,0)" xlink:href="#aH"/><use transform="matrix(0.05,0,0,0.05,60.95,0)" xlink:href="#aI"/><use transform="matrix(0.05,0,0,0.05,70.95,0)" xlink:href="#bP"/><use transform="matrix(0.05,0,0,0.05,81.45,0)" xlink:href="#bP"/></g><use transform="matrix(0.05,0,0,0.05,0,0)" xlink:href="#bp" id="ah"/><g id="ai"><use transform="matrix(0.05,0,0,0.05,0,0)" xlink:href="#bs"/><use transform="matrix(0.05,0,0,0.05,9,0)" xlink:href="#aI"/><use transform="matrix(0.05,0,0,0.05,19,0)" xlink:href="#bL"/><use transform="matrix(0.05,0,0,0.05,29,0)" xlink:href="#aF"/><use transform="matrix(0.05,0,0,0.05,32.95,0)" xlink:href="#aM"/><use transform="matrix(0.05,0,0,0.05,41.95,0)" xlink:href="#aT"/><use transform="matrix(0.05,0,0,0.05,51.95,0)" xlink:href="#aS"/><use transform="matrix(0.05,0,0,0.05,55.900000000000006,0)" xlink:href="#aV"/><use transform="matrix(0.05,0,0,0.05,65.9,0)" xlink:href="#aX"/><use transform="matrix(0.05,0,0,0.05,71.85000000000001,0)" xlink:href="#bv"/><use transform="matrix(0.05,0,0,0.05,81.85000000000001,0)" xlink:href="#aL"/><use transform="matrix(0.05,0,0,0.05,91.85000000000001,0)" xlink:href="#aH"/><use transform="matrix(0.05,0,0,0.05,96.85000000000001,0)" xlink:href="#aI"/><use transform="matrix(0.05,0,0,0.05,106.85000000000001,0)" xlink:href="#aG"/><use transform="matrix(0.05,0,0,0.05,116.85000000000001,0)" xlink:href="#aH"/><use transform="matrix(0.05,0,0,0.05,121.85000000000001,0)" xlink:href="#aI"/><use transform="matrix(0.05,0,0,0.05,131.85000000000002,0)" xlink:href="#aZ"/></g><g id="aj"><use transform="matrix(0.05,0,0,0.05,0,0)" xlink:href="#bs"/><use transform="matrix(0.05,0,0,0.05,9,0)" xlink:href="#aL"/><use transform="matrix(0.05,0,0,0.05,19,0)" xlink:href="#aS"/><use transform="matrix(0.05,0,0,0.05,22.95,0)" xlink:href="#aV"/><use transform="matrix(0.05,0,0,0.05,32.95,0)" xlink:href="#aJ"/><use transform="matrix(0.05,0,0,0.05,38.900000000000006,0)" xlink:href="#aZ"/><use transform="matrix(0.05,0,0,0.05,43.900000000000006,0)" xlink:href="#aJ"/><use transform="matrix(0.05,0,0,0.05,49.85000000000001,0)" xlink:href="#aI"/><use transform="matrix(0.05,0,0,0.05,59.85,0)" xlink:href="#aL"/><use transform="matrix(0.05,0,0,0.05,69.85000000000001,0)" xlink:href="#aS"/><use transform="matrix(0.05,0,0,0.05,73.80000000000001,0)" xlink:href="#aY"/></g><path fill="#333" d="M24 0v-248h52V0H24" id="bQ"/><path fill="#333" d="M220-157c-53 9-28 100-34 157h-49v-107c1-27-5-49-29-50C55-147 81-57 75 0H25l-1-190h47c2 12-1 28 3 38 10-53 101-56 108 0 13-22 24-43 59-42 82 1 51 116 57 194h-49v-107c-1-25-5-48-29-50" id="bR"/><g id="ak"><use transform="matrix(0.05,0,0,0.05,0,0)" xlink:href="#bQ"/><use transform="matrix(0.05,0,0,0.05,5,0)" xlink:href="#aR"/><use transform="matrix(0.05,0,0,0.05,15.950000000000001,0)" xlink:href="#bR"/><use transform="matrix(0.05,0,0,0.05,31.950000000000003,0)" xlink:href="#bg"/><use transform="matrix(0.05,0,0,0.05,42.900000000000006,0)" xlink:href="#aQ"/><use transform="matrix(0.05,0,0,0.05,52.900000000000006,0)" xlink:href="#bf"/><use transform="matrix(0.05,0,0,0.05,63.85,0)" xlink:href="#bK"/><use transform="matrix(0.05,0,0,0.05,68.85000000000001,0)" xlink:href="#aQ"/></g><g id="al"><use transform="matrix(0.05,0,0,0.05,0,0)" xlink:href="#aG"/><use transform="matrix(0.05,0,0,0.05,10,0)" xlink:href="#aJ"/><use transform="matrix(0.05,0,0,0.05,15.949999999999998,0)" xlink:href="#aV"/><use transform="matrix(0.05,0,0,0.05,25.950000000000003,0)" xlink:href="#bq"/><use transform="matrix(0.05,0,0,0.05,37.95,0)" xlink:href="#aL"/><use transform="matrix(0.05,0,0,0.05,47.95,0)" xlink:href="#aJ"/><use transform="matrix(0.05,0,0,0.05,53.900000000000006,0)" xlink:href="#aH"/><use transform="matrix(0.05,0,0,0.05,58.900000000000006,0)" xlink:href="#aF"/><use transform="matrix(0.05,0,0,0.05,62.85,0)" xlink:href="#bn"/><use transform="matrix(0.05,0,0,0.05,72.85000000000001,0)" xlink:href="#aL"/><use transform="matrix(0.05,0,0,0.05,82.85000000000001,0)" xlink:href="#aZ"/></g><g id="am"><use transform="matrix(0.05,0,0,0.05,0,0)" xlink:href="#bs"/><use transform="matrix(0.05,0,0,0.05,9,0)" xlink:href="#aL"/><use transform="matrix(0.05,0,0,0.05,19,0)" xlink:href="#aS"/><use transform="matrix(0.05,0,0,0.05,22.95,0)" xlink:href="#aV"/><use transform="matrix(0.05,0,0,0.05,32.95,0)" xlink:href="#aJ"/><use transform="matrix(0.05,0,0,0.05,38.900000000000006,0)" xlink:href="#bt"/><use transform="matrix(0.05,0,0,0.05,48.900000000000006,0)" xlink:href="#aV"/><use transform="matrix(0.05,0,0,0.05,58.900000000000006,0)" xlink:href="#aH"/><use transform="matrix(0.05,0,0,0.05,63.900000000000006,0)" xlink:href="#aI"/><use transform="matrix(0.05,0,0,0.05,73.9,0)" xlink:href="#aZ"/></g><g id="an"><use transform="matrix(0.05,0,0,0.05,0,0)" xlink:href="#ba"/><use transform="matrix(0.05,0,0,0.05,12.950000000000001,0)" xlink:href="#aI"/><use transform="matrix(0.05,0,0,0.05,22.950000000000003,0)" xlink:href="#aL"/><use transform="matrix(0.05,0,0,0.05,32.95,0)" xlink:href="#aS"/></g><g id="ao"><use transform="matrix(0.05,0,0,0.05,0,0)" xlink:href="#bs"/><use transform="matrix(0.05,0,0,0.05,9,0)" xlink:href="#aL"/><use transform="matrix(0.05,0,0,0.05,19,0)" xlink:href="#aS"/><use transform="matrix(0.05,0,0,0.05,22.95,0)" xlink:href="#aV"/><use transform="matrix(0.05,0,0,0.05,32.95,0)" xlink:href="#aJ"/><use transform="matrix(0.05,0,0,0.05,38.900000000000006,0)" xlink:href="#bu"/><use transform="matrix(0.05,0,0,0.05,50.900000000000006,0)" xlink:href="#bn"/><use transform="matrix(0.05,0,0,0.05,60.900000000000006,0)" xlink:href="#aF"/><use transform="matrix(0.05,0,0,0.05,64.85000000000001,0)" xlink:href="#aK"/><use transform="matrix(0.05,0,0,0.05,69.85000000000001,0)" xlink:href="#aF"/><use transform="matrix(0.05,0,0,0.05,73.80000000000001,0)" xlink:href="#aM"/><use transform="matrix(0.05,0,0,0.05,82.80000000000001,0)" xlink:href="#aL"/><use transform="matrix(0.05,0,0,0.05,92.80000000000001,0)" xlink:href="#aM"/><use transform="matrix(0.05,0,0,0.05,101.80000000000001,0)" xlink:href="#aF"/><use transform="matrix(0.05,0,0,0.05,105.75,0)" xlink:href="#aV"/><use transform="matrix(0.05,0,0,0.05,115.75,0)" xlink:href="#aG"/><use transform="matrix(0.05,0,0,0.05,125.75,0)" xlink:href="#aZ"/></g><g id="ap"><use transform="matrix(0.05,0,0,0.05,0,0)" xlink:href="#bO"/><use transform="matrix(0.05,0,0,0.05,10.5,0)" xlink:href="#bO"/><use transform="matrix(0.05,0,0,0.05,21,0)" xlink:href="#aU"/><use transform="matrix(0.05,0,0,0.05,33.95,0)" xlink:href="#aJ"/><use transform="matrix(0.05,0,0,0.05,39.900000000000006,0)" xlink:href="#aI"/><use transform="matrix(0.05,0,0,0.05,49.900000000000006,0)" xlink:href="#aL"/><use transform="matrix(0.05,0,0,0.05,59.900000000000006,0)" xlink:href="#aH"/><use transform="matrix(0.05,0,0,0.05,64.9,0)" xlink:href="#aI"/><use transform="matrix(0.05,0,0,0.05,74.9,0)" xlink:href="#bP"/><use transform="matrix(0.05,0,0,0.05,85.4,0)" xlink:href="#bP"/></g><g id="aq"><use transform="matrix(0.05,0,0,0.05,0,0)" xlink:href="#aF"/><use transform="matrix(0.05,0,0,0.05,3.95,0)" xlink:href="#aG"/><use transform="matrix(0.05,0,0,0.05,13.949999999999998,0)" xlink:href="#bj"/><use transform="matrix(0.05,0,0,0.05,28.899999999999995,0)" xlink:href="#aT"/><use transform="matrix(0.05,0,0,0.05,38.9,0)" xlink:href="#aI"/><use transform="matrix(0.05,0,0,0.05,48.9,0)" xlink:href="#bk"/><use transform="matrix(0.05,0,0,0.05,58.900000000000006,0)" xlink:href="#aS"/><use transform="matrix(0.05,0,0,0.05,62.85,0)" xlink:href="#aI"/><use transform="matrix(0.05,0,0,0.05,72.85,0)" xlink:href="#aX"/><use transform="matrix(0.05,0,0,0.05,78.8,0)" xlink:href="#aG"/><use transform="matrix(0.05,0,0,0.05,88.8,0)" xlink:href="#aJ"/><use transform="matrix(0.05,0,0,0.05,94.75,0)" xlink:href="#aV"/><use transform="matrix(0.05,0,0,0.05,104.75,0)" xlink:href="#bq"/><use transform="matrix(0.05,0,0,0.05,116.75,0)" xlink:href="#aL"/><use transform="matrix(0.05,0,0,0.05,126.75,0)" xlink:href="#aJ"/><use transform="matrix(0.05,0,0,0.05,132.7,0)" xlink:href="#aH"/><use transform="matrix(0.05,0,0,0.05,137.7,0)" xlink:href="#aF"/><use transform="matrix(0.05,0,0,0.05,141.64999999999998,0)" xlink:href="#bn"/><use transform="matrix(0.05,0,0,0.05,151.64999999999998,0)" xlink:href="#aL"/><use transform="matrix(0.05,0,0,0.05,161.64999999999998,0)" xlink:href="#aZ"/></g><g id="ar"><use transform="matrix(0.05,0,0,0.05,0,0)" xlink:href="#bo"/><use transform="matrix(0.05,0,0,0.05,5,0)" xlink:href="#aG"/><use transform="matrix(0.05,0,0,0.05,15,0)" xlink:href="#aH"/><use transform="matrix(0.05,0,0,0.05,20,0)" xlink:href="#aI"/><use transform="matrix(0.05,0,0,0.05,30,0)" xlink:href="#bm"/><use transform="matrix(0.05,0,0,0.05,40,0)" xlink:href="#aI"/><use transform="matrix(0.05,0,0,0.05,50,0)" xlink:href="#aJ"/><use transform="matrix(0.05,0,0,0.05,54.95,0)" xlink:href="#br"/></g><g id="as"><use transform="matrix(0.05,0,0,0.05,0,0)" xlink:href="#ba"/><use transform="matrix(0.05,0,0,0.05,12.950000000000001,0)" xlink:href="#aI"/><use transform="matrix(0.05,0,0,0.05,22.950000000000003,0)" xlink:href="#aL"/><use transform="matrix(0.05,0,0,0.05,32.95,0)" xlink:href="#aS"/><use transform="matrix(0.05,0,0,0.05,36.900000000000006,0)" xlink:href="#br"/></g><g id="at"><use transform="matrix(0.05,0,0,0.05,0,0)" xlink:href="#ba"/><use transform="matrix(0.05,0,0,0.05,12.950000000000001,0)" xlink:href="#aI"/><use transform="matrix(0.05,0,0,0.05,22.950000000000003,0)" xlink:href="#aL"/><use transform="matrix(0.05,0,0,0.05,32.95,0)" xlink:href="#aS"/><use transform="matrix(0.05,0,0,0.05,36.900000000000006,0)" xlink:href="#aY"/></g><path fill="#333" d="M199 0l-22-63H83L61 0H9l90-248h61L250 0h-51zm-33-102l-36-108c-10 38-24 72-36 108h72" id="bS"/><g id="au"><use transform="matrix(0.05,0,0,0.05,0,0)" xlink:href="#bS"/><use transform="matrix(0.05,0,0,0.05,12.950000000000001,0)" xlink:href="#bg"/><use transform="matrix(0.05,0,0,0.05,23.900000000000002,0)" xlink:href="#bd"/><use transform="matrix(0.05,0,0,0.05,29.85,0)" xlink:href="#bc"/><use transform="matrix(0.05,0,0,0.05,40.800000000000004,0)" xlink:href="#bR"/><use transform="matrix(0.05,0,0,0.05,56.800000000000004,0)" xlink:href="#bc"/><use transform="matrix(0.05,0,0,0.05,67.75,0)" xlink:href="#bd"/><use transform="matrix(0.05,0,0,0.05,73.7,0)" xlink:href="#bc"/><use transform="matrix(0.05,0,0,0.05,84.65,0)" xlink:href="#be"/></g><g id="av"><use transform="matrix(0.05,0,0,0.05,0,0)" xlink:href="#bj"/><use transform="matrix(0.05,0,0,0.05,14.950000000000001,0)" xlink:href="#aL"/><use transform="matrix(0.05,0,0,0.05,24.950000000000003,0)" xlink:href="#aJ"/><use transform="matrix(0.05,0,0,0.05,30.900000000000002,0)" xlink:href="#aM"/><use transform="matrix(0.05,0,0,0.05,39.900000000000006,0)" xlink:href="#aL"/><use transform="matrix(0.05,0,0,0.05,49.900000000000006,0)" xlink:href="#aZ"/></g><g id="aw"><use transform="matrix(0.05,0,0,0.05,0,0)" xlink:href="#bj"/><use transform="matrix(0.05,0,0,0.05,14.950000000000001,0)" xlink:href="#aV"/><use transform="matrix(0.05,0,0,0.05,24.950000000000003,0)" xlink:href="#bn"/><use transform="matrix(0.05,0,0,0.05,34.95,0)" xlink:href="#aI"/><use transform="matrix(0.05,0,0,0.05,44.95,0)" xlink:href="#aS"/><use transform="matrix(0.05,0,0,0.05,48.900000000000006,0)" xlink:href="#aV"/><use transform="matrix(0.05,0,0,0.05,58.900000000000006,0)" xlink:href="#aZ"/></g><g id="ax"><use transform="matrix(0.05,0,0,0.05,0,0)" xlink:href="#bo"/><use transform="matrix(0.05,0,0,0.05,5,0)" xlink:href="#aG"/><use transform="matrix(0.05,0,0,0.05,15,0)" xlink:href="#aH"/><use transform="matrix(0.05,0,0,0.05,20,0)" xlink:href="#aI"/><use transform="matrix(0.05,0,0,0.05,30,0)" xlink:href="#bm"/><use transform="matrix(0.05,0,0,0.05,40,0)" xlink:href="#aI"/><use transform="matrix(0.05,0,0,0.05,50,0)" xlink:href="#aJ"/></g><g id="ay"><use transform="matrix(0.05,0,0,0.05,0,0)" xlink:href="#aL"/><use transform="matrix(0.05,0,0,0.05,10,0)" xlink:href="#aT"/><use transform="matrix(0.05,0,0,0.05,20,0)" xlink:href="#aH"/><use transform="matrix(0.05,0,0,0.05,25,0)" xlink:href="#aV"/><use transform="matrix(0.05,0,0,0.05,35,0)" xlink:href="#bj"/><use transform="matrix(0.05,0,0,0.05,49.95,0)" xlink:href="#aV"/><use transform="matrix(0.05,0,0,0.05,59.95,0)" xlink:href="#aH"/><use transform="matrix(0.05,0,0,0.05,64.95,0)" xlink:href="#aV"/><use transform="matrix(0.05,0,0,0.05,74.95,0)" xlink:href="#aJ"/><use transform="matrix(0.05,0,0,0.05,80.9,0)" xlink:href="#aX"/><use transform="matrix(0.05,0,0,0.05,86.85000000000001,0)" xlink:href="#bj"/><use transform="matrix(0.05,0,0,0.05,101.80000000000001,0)" xlink:href="#aL"/><use transform="matrix(0.05,0,0,0.05,111.80000000000001,0)" xlink:href="#aJ"/><use transform="matrix(0.05,0,0,0.05,117.75,0)" xlink:href="#aM"/><use transform="matrix(0.05,0,0,0.05,126.75,0)" xlink:href="#aL"/><use transform="matrix(0.05,0,0,0.05,136.75,0)" xlink:href="#aZ"/></g><g id="az"><use transform="matrix(0.05,0,0,0.05,0,0)" xlink:href="#aK"/><use transform="matrix(0.05,0,0,0.05,5,0)" xlink:href="#aI"/><use transform="matrix(0.05,0,0,0.05,15,0)" xlink:href="#aM"/><use transform="matrix(0.05,0,0,0.05,24,0)" xlink:href="#bL"/><use transform="matrix(0.05,0,0,0.05,34,0)" xlink:href="#aL"/><use transform="matrix(0.05,0,0,0.05,44,0)" xlink:href="#aZ"/></g><g id="aA"><use transform="matrix(0.05,0,0,0.05,0,0)" xlink:href="#ba"/><use transform="matrix(0.05,0,0,0.05,12.950000000000001,0)" xlink:href="#aI"/><use transform="matrix(0.05,0,0,0.05,22.950000000000003,0)" xlink:href="#aL"/><use transform="matrix(0.05,0,0,0.05,32.95,0)" xlink:href="#aS"/><use transform="matrix(0.05,0,0,0.05,36.900000000000006,0)" xlink:href="#aY"/></g><path fill="#333" d="M24 0v-248h195v40H76v63h132v40H76v65h150V0H24" id="bT"/><g id="aB"><use transform="matrix(0.05,0,0,0.05,0,0)" xlink:href="#bT"/><use transform="matrix(0.05,0,0,0.05,12,0)" xlink:href="#bR"/><use transform="matrix(0.05,0,0,0.05,28,0)" xlink:href="#bf"/><use transform="matrix(0.05,0,0,0.05,38.95,0)" xlink:href="#bE"/><use transform="matrix(0.05,0,0,0.05,48.95,0)" xlink:href="#be"/><use transform="matrix(0.05,0,0,0.05,55.95,0)" xlink:href="#bG"/><use transform="matrix(0.05,0,0,0.05,65.95,0)" xlink:href="#bE"/><use transform="matrix(0.05,0,0,0.05,75.95,0)" xlink:href="#bG"/><use transform="matrix(0.05,0,0,0.05,85.95,0)" xlink:href="#aP"/><use transform="matrix(0.05,0,0,0.05,90.95,0)" xlink:href="#bc"/><use transform="matrix(0.05,0,0,0.05,101.9,0)" xlink:href="#aR"/></g><g id="aC"><use transform="matrix(0.05,0,0,0.05,0,0)" xlink:href="#aI"/><use transform="matrix(0.05,0,0,0.05,10,0)" xlink:href="#bj"/><use transform="matrix(0.05,0,0,0.05,24.950000000000003,0)" xlink:href="#bk"/><use transform="matrix(0.05,0,0,0.05,34.95,0)" xlink:href="#aL"/><use transform="matrix(0.05,0,0,0.05,44.95,0)" xlink:href="#aJ"/><use transform="matrix(0.05,0,0,0.05,50.900000000000006,0)" xlink:href="#aM"/><use transform="matrix(0.05,0,0,0.05,59.900000000000006,0)" xlink:href="#aL"/><use transform="matrix(0.05,0,0,0.05,69.9,0)" xlink:href="#aM"/><use transform="matrix(0.05,0,0,0.05,78.9,0)" xlink:href="#aF"/><use transform="matrix(0.05,0,0,0.05,82.85000000000001,0)" xlink:href="#aV"/><use transform="matrix(0.05,0,0,0.05,92.85000000000001,0)" xlink:href="#aG"/><use transform="matrix(0.05,0,0,0.05,102.85000000000001,0)" xlink:href="#aX"/><use transform="matrix(0.05,0,0,0.05,108.80000000000001,0)" xlink:href="#aG"/><use transform="matrix(0.05,0,0,0.05,118.80000000000001,0)" xlink:href="#aV"/><use transform="matrix(0.05,0,0,0.05,128.8,0)" xlink:href="#bj"/><use transform="matrix(0.05,0,0,0.05,143.75,0)" xlink:href="#bk"/><use transform="matrix(0.05,0,0,0.05,153.75,0)" xlink:href="#aJ"/><use transform="matrix(0.05,0,0,0.05,159.7,0)" xlink:href="#aI"/><use transform="matrix(0.05,0,0,0.05,169.7,0)" xlink:href="#aZ"/></g><g id="aD"><use transform="matrix(0.05,0,0,0.05,0,0)" xlink:href="#aJ"/><use transform="matrix(0.05,0,0,0.05,5.95,0)" xlink:href="#aI"/><use transform="matrix(0.05,0,0,0.05,15.949999999999998,0)" xlink:href="#aL"/><use transform="matrix(0.05,0,0,0.05,25.950000000000003,0)" xlink:href="#aS"/><use transform="matrix(0.05,0,0,0.05,29.899999999999995,0)" xlink:href="#aY"/></g></defs></g></svg>